<?xml version="1.0" encoding="utf-8"?>
<!-- Generator: Adobe Illustrator 19.0.0, SVG Export Plug-In . SVG Version: 6.00 Build 0)  -->
<svg version="1.1" id="Layer_1" xmlns="http://www.w3.org/2000/svg" xmlns:xlink="http://www.w3.org/1999/xlink" x="0px" y="0px"
	 viewBox="0 0 208 208" style="enable-background:new 0 0 208 208;" xml:space="preserve">
<style type="text/css">
	.st0{fill:#198DCD;}
	.st1{fill:#1695D3;}
	.st2{fill:#00BEF2;}
	.st3{fill:#F4F8FB;}
	.st4{fill:#0085C9;}
	.st5{fill:#1B92D0;}
	.st6{fill:#D0EFFB;}
	.st7{fill:#F2F9FD;}
	.st8{fill:#14BDF0;}
	.st9{fill:#16BFF1;}
	.st10{fill:#1856A6;}
	.st11{fill:#14BBEF;}
	.st12{fill:#184EA1;}
	.st13{fill:#1752A4;}
	.st14{fill:#1B499F;}
	.st15{fill:#12B7EC;}
	.st16{fill:#13B9ED;}
	.st17{fill:#1A5AA9;}
	.st18{fill:#08ACE3;}
	.st19{fill:#15BEF1;}
	.st20{fill:#1F439C;}
	.st21{fill:#08A6DE;}
	.st22{fill:#1C5EAC;}
	.st23{fill:#1D469D;}
	.st24{fill:#1890CF;}
	.st25{fill:#0EB1E6;}
	.st26{fill:#1D64B0;}
	.st27{fill:#1499D6;}
	.st28{fill:#0FB2E7;}
	.st29{fill:#0FB3E8;}
	.st30{fill:#1694D2;}
	.st31{fill:#1D61AE;}
	.st32{fill:#198CCC;}
	.st33{fill:#06A8E1;}
	.st34{fill:#0774BB;}
	.st35{fill:#0CAEE5;}
	.st36{fill:#129CD8;}
	.st37{fill:#0C78BE;}
	.st38{fill:#116FB7;}
	.st39{fill:#0874BB;}
	.st40{fill:#08A6DF;}
	.st41{fill:#0F6EB7;}
	.st42{fill:#11B5EA;}
	.st43{fill:#107CC1;}
	.st44{fill:#1683C5;}
	.st45{fill:#1E62AF;}
	.st46{fill:#0AA3DC;}
	.st47{fill:#1A68B3;}
	.st48{fill:#09ACE3;}
	.st49{fill:#0F9ED9;}
	.st50{fill:#0DA1DB;}
	.st51{fill:#0EA0DA;}
	.st52{fill:#137FC3;}
	.st53{fill:#0EA4DD;}
	.st54{fill:#1A50A3;}
	.st55{fill:#0A71B8;}
	.st56{fill:#0B71B9;}
	.st57{fill:#117DC1;}
	.st58{fill:#0AA3DD;}
	.st59{fill:#156CB5;}
	.st60{fill:#09A9E1;}
	.st61{fill:#1968B2;}
	.st62{fill:#1957A7;}
	.st63{fill:#159DD8;}
	.st64{fill:#1990CF;}
	.st65{fill:#0CA4DD;}
	.st66{fill:#1987C8;}
	.st67{fill:#1B8ECD;}
	.st68{fill:#166CB5;}
	.st69{fill:#1795D2;}
	.st70{fill:#0FA1DB;}
	.st71{fill:#1783C5;}
	.st72{fill:#1D4AA1;}
	.st73{fill:#1D8ECD;}
	.st74{fill:#0C72B9;}
	.st75{fill:#08A4DD;}
	.st76{fill:#12A0DA;}
	.st77{fill:#157FC2;}
	.st78{fill:#1895D3;}
	.st79{fill:#0E72B9;}
	.st80{fill:#0B75BC;}
	.st81{fill:#1D67B1;}
	.st82{fill:#1B5BAA;}
	.st83{fill:#1699D5;}
	.st84{fill:#10A4DC;}
	.st85{fill:#1A85C6;}
	.st86{fill:#1498D5;}
	.st87{fill:#2090CD;}
	.st88{fill:#0C9BD7;}
	.st89{fill:#0088CC;}
	.st90{fill:#107DC1;}
	.st91{fill:#1294D3;}
	.st92{fill:#1A55A6;}
	.st93{fill:#024FA5;}
	.st94{fill:#0088CB;}
	.st95{fill:#053D9A;}
	.st96{fill:#0064B4;}
	.st97{fill:#00B8ED;}
	.st98{fill:#0098D5;}
	.st99{fill:#0182C6;}
	.st100{fill:#0092D3;}
	.st101{fill:#186FB6;}
	.st102{fill:#00BBF0;}
	.st103{fill:#0A85C8;}
	.st104{fill:#3AC5F0;}
	.st105{fill:#0065B2;}
	.st106{fill:#01BAEF;}
	.st107{fill:#01BAF0;}
	.st108{fill:#0195D4;}
	.st109{fill:#0063B2;}
	.st110{fill:#20249F;}
	.st111{fill:#028BCE;}
	.st112{fill:#018FD1;}
	.st113{fill:#0898D6;}
	.st114{fill:#0091D2;}
	.st115{fill:#0081C6;}
	.st116{fill:#0179C1;}
	.st117{fill:#0280C6;}
	.st118{fill:#1887C8;}
</style>
<g>
	<path class="st0" d="M7,104c0.7,3.1,3,5.7,3,9c-1.6,2.8-4,2.4-6.4,1.7C2,114,2.2,112,1,111c0-0.3,0-0.7,0-1c1-2.1,0.3-4.3,0.5-6.4
		c0.1-0.5,0.4-0.8,0.9-0.9C4,103.1,5.5,103.4,7,104z"/>
	<path class="st1" d="M3,103c-0.3,0-0.7,0-1,0c-0.3,0.5-0.7,0.5-1,0c0-1.7,0-3.3,0-5l0.3-0.3l0.3,0.2c1.7-1.5,0.9-3.2,0.6-4.9
		c-0.2-1.5-0.3-2.9,0.8-4.2c1.8,0.7,0.3,3.3,2.2,3.9c1.5,2.2,0.7,4.8,1.1,7.2C5.4,101.2,4.2,102.1,3,103z"/>
	<path class="st2" d="M112,1c0.2,1.2,1.2,0.9,1.9,1.2c0,1.3-0.9,1.7-1.9,1.9c-4.7,0.7-9.4,0.7-14.1,0c-0.9-0.2-1.9-0.6-1.9-1.9
		C96.7,2.1,97.3,2,98,1.8c1.6-0.6,3.2-0.2,4.8-0.3c2.1-0.3,4.2,0.6,6.2-0.5C110,1,111,1,112,1z"/>
	<path class="st3" d="M209,112l-0.4,0l-0.4,0c-2.7-4.3-1.7-8.8-0.7-13.4c0.2-0.2,0.5-0.4,0.7-0.6c0.3,0,0.6,0,0.8,0
		C209,102.7,209,107.3,209,112z"/>
	<path class="st4" d="M1,111c2,0.1,2,1.6,2,3c0.8,1.3,1.2,2.5-0.8,3c-0.5-1,0.3-2.4-1.2-3C1,113,1,112,1,111z"/>
	<path class="st5" d="M1,103c0.3,0,0.7,0,1,0c-0.4,2.3,0.9,4.9-1,7C1,107.7,1,105.3,1,103z"/>
	<path class="st6" d="M109,1c-1.8,1.9-4,0.7-6,0.8c-0.3-0.2-0.4-0.4-0.3-0.6c0.1-0.2,0.2-0.3,0.3-0.3C105,1,107,1,109,1z"/>
	<path class="st7" d="M103,1c0,0.3,0,0.6,0,0.8c-1.7,0-3.3,0-5,0c0-0.3,0-0.6,0-0.8C99.7,1,101.3,1,103,1z"/>
	<path class="st8" d="M146.9,11c9.3,4.8,18.3,10.1,26.4,16.8c-0.2,0.7-0.6,1.1-1.3,1.2c-9-4.2-18.1-7.7-28-9.2
		c-1.5-2.2-3.7-1.1-5.7-1.4c-2.1-0.2-4.3,0.4-6.4-0.4l0.1,0.1c-2.7-1.6-5.3-0.4-7.9,0.1c-1.2,0.3-2.4,0.1-3.5,0.2
		c-1.8,0.3-3.7-0.6-5.4,0.6c-3.6,1.3-7.3,1.8-11.1,2c-5.3-0.9-10.6-0.5-15.9-0.5c-10.1-0.1-20.3,0.1-30.4-0.1c-2.7,0-6,0.5-6.7-3.5
		c3.6-2.7,7.5-4.8,11.9-6.1c4.4,0.6,8.9,0.7,13.4,0.6C99.8,11.4,123.3,12.2,146.9,11z"/>
	<path class="st9" d="M96.1,2.2c6,1.3,11.9,1.3,17.9,0c8.7,0.4,17.1,2.3,25.1,5.6c1,2.3-0.6,3.1-2.2,3.6c-1.7,0.6-3.6,0.6-5.4,0.6
		c-17.6,0-35.3,0-52.9,0c-1.8,0-3.7-0.1-5.4-0.7c-1.7-0.5-3.2-1.4-2.2-3.6C78.9,4.2,87.5,3.5,96.1,2.2z"/>
	<path class="st10" d="M81,179.1c7.4,1.3,14.8,2.5,22.1,3.8c3,0.8,5.9,1.3,8.8-0.4c6.5-0.3,12.7-2.1,19-3.9c1.9,1.1,5.1,0.2,5.3,3.7
		c-0.6,1.9-1.8,3.4-3.1,4.7c-2.1,0.4-4.3,0.5-6.4,0.5c-26.3,0-52.5,0-78.8,0c-2,0-4-0.3-6-0.3c-2.1-0.8-3.6-2.4-5-4.1
		c0.3-4.3,3.8-3.6,6.3-3.7c11.1-0.2,22.2-0.1,33.4-0.1C78.1,179.4,79.6,179.7,81,179.1z"/>
	<path class="st11" d="M51,17c1.4,2.1,3.5,2,5.7,2c13.9-0.1,27.8,0,41.7,0c2.1,0,4.4-0.5,5.6,2.1C97,23.4,90,25.6,83,27.9
		c-10.9-0.7-21.9-0.1-32.8-0.3c-2,0-4,0.1-6-0.2c-1.8-0.2-3.7-0.5-4.5-2.6C42.9,21.5,46.9,19.1,51,17z"/>
	<path class="st12" d="M128,192.8c-1.5,1.6-2.8,3.5-4.9,4.5c-7.1-1.2-14.2-0.6-21.3-0.6c-15.2,0-30.5-0.3-45.7,0.2
		c-3.4-1.3-6.3-3.5-9.1-5.7c1.1-3.5,4.2-2.6,6.6-2.7c16.9-0.1,33.9-0.1,50.8-0.1c6.8,0,13.6-0.3,20.4,0.2
		C127,188.7,130.6,188.6,128,192.8z"/>
	<path class="st13" d="M128,192.8c1-2.8-0.7-2.8-2.8-2.8c-9.8,0.1-19.6,0-29.4,0c-14.6,0-29.2,0-43.8,0c-1.7,0-3.7-0.7-5.1,1.1
		c-1.9-1-3.7-2.1-5.1-3.8c1.1-1.8,2.9-1.3,4.5-1.3c27.5,0,55.1,0,82.6,0c1.4,0,3-0.4,4.1,1.1C131.4,189.1,130.2,191.4,128,192.8z"/>
	<path class="st14" d="M56,196.8c1.7-1.7,3.8-1.8,6-1.8c18.8,0,37.6,0,56.3,0c1.8,0,4.2-0.9,4.7,2.2c-1.2,1.9-2.9,3.1-5.1,3.8
		c-17.7-0.9-35.3-0.7-53-0.1C62,199.5,59,198.2,56,196.8z"/>
	<path class="st15" d="M73.1,33.1c-2.7,1.7-5.3,3.3-8,5c-10.5,0.8-21,0.3-31.4,0.3c-2.2,0-4.4-0.6-4.7-3.4c1.3-2,3-3.7,5-5
		c11.5-1,23.1-0.5,34.6-0.2C70.5,29.8,72.9,30.2,73.1,33.1z"/>
	<path class="st16" d="M73.1,33.1C71.5,31,69.2,31,66.8,31c-9.1,0-18.1,0-27.2,0c-2,0-4,0-5.7-1.1c1.7-2,3.2-4.2,5.8-5.1
		c1.9,1.2,4.1,1.2,6.2,1.2c10.6,0,21.2,0,31.8,0c2,0,4.1-0.4,5.2,1.9C79.1,28.6,76.9,32.3,73.1,33.1z"/>
	<path class="st17" d="M81,179.1c-0.6,2.7-2.8,1.8-4.4,1.9c-11.4,0.1-22.8,0-34.2,0c-2.1,0-4.4-0.4-5.5,2.2c-0.9-0.3-1.6-0.9-2-1.8
		c-0.6-1.8-3.8-2.3-2.6-4.8c1.1-2.3,3.6-2.1,5.7-2.1c10.4,0.1,20.9-0.5,31.3,0.3C73.2,176.3,77.1,177.7,81,179.1z"/>
	<path class="st18" d="M168.9,62.1c-2-2.6-4.6-4.9-6-8c0.4-2.9,2.7-2.5,4.5-2.6c6.9-0.1,13.8-0.6,20.6,0.4c2.6,2.1,5.2,4.1,6.7,7.1
		c-0.4,2.4-2,3.3-4.2,3.3C183.4,62.5,176.2,62.9,168.9,62.1z"/>
	<path class="st18" d="M17.2,59c-0.4-2.9,1.2-5.4,2-8c7.4,0.6,14.9,0.2,22.3,0.5c2,0.1,4.9-0.8,5.6,2.6C45,56.7,43,59.3,41,62
		c-6.5,1.1-13.1,0.4-19.6,0.4C19.1,62.3,17.6,61.3,17.2,59z"/>
	<path class="st19" d="M70.9,7.7c1.2,3.5,4.5,3.1,7,3.2c18.1,0.2,36.1,0.2,54.2,0c2.5,0,5.8,0.4,7-3.1c2.9,0.4,5.4,1.6,7.8,3.3
		c-1.8,1.6-4,2-6.4,2c-23.6-0.1-47.1-0.1-70.7,0c-2.6,0-4.9-0.5-6.9-2.1C65.2,8.9,68.8,10.3,70.9,7.7z"/>
	<path class="st20" d="M112,204.1c-7.4,4-15.5,4.5-23.5,3.7c-5.2-0.6-10.7-1.2-15.6-3.6c-0.2-2.8,1.9-3.4,3.9-3.5
		c10.6-0.3,21.2-0.3,31.8,0C110.4,200.7,113.1,200.9,112,204.1z"/>
	<path class="st21" d="M175.1,74c-1.4-3-2.9-6-4.3-8.9c3.7-1.4,7.5-0.3,11.2-0.5c5.4-0.2,10.8,0.2,16.2-0.8c2.2,2.2,3.4,5,4,8
		c-0.1,2.9-2.4,1.7-3.7,1.7C190.7,73.5,182.9,73.3,175.1,74z"/>
	<path class="st22" d="M69.3,174.9c-3.1,1.8-6.5,1-9.7,1.1c-7.1,0.1-14.2,0-21.3,0c-6.4,0-6.4,0-3.3,5.4c-3.3-2.1-5.6-5.2-8-8.3
		c-0.1-2.2,1.7-2.4,3.1-2.4c10.4-0.2,20.8-1,31.2,0.2C64,171.8,66.8,173.1,69.3,174.9z"/>
	<path class="st23" d="M112,204.1c-0.3-2.4-2.2-2.1-3.8-2.1c-10.3,0-20.5,0-30.8,0c-1.9,0-3.7,0.1-4.5,2.2c-2.8-0.7-5.4-1.8-7.9-3.3
		c0.4-2.4,2.4-1.9,3.9-1.9c15.1,0,30.1,0,45.2,0c1.6,0,3.5-0.5,3.9,2C116.2,202.5,114.4,203.8,112,204.1z"/>
	<path class="st24" d="M182.9,105.1c-1-1.2-1-2.7-0.7-4.2c0.5-0.4,1-0.8,1.6-1c7.8-0.4,15.6-1.6,23.3,0.8c0.8,2.5,0.6,4.9,0.1,7.4
		c-7.1,2.7-14.3,1.2-21.5,1C183,108.9,184.1,106.3,182.9,105.1z"/>
	<path class="st25" d="M20.1,49c0.5-2.2,1.3-4.3,2.9-6c8.9-1.1,17.8-0.6,26.7-0.2c2.3,0.1,5.2,0.6,4.4,4.3c-1,1-2,2-3,3
		c-9.1,1-18.2,0.4-27.4,0.3C22.4,50.4,21,50.1,20.1,49z"/>
	<path class="st26" d="M48.1,163c2.2,0.1,3.4,1.8,5,3c-1.1,3.3-3.9,3.3-6.5,3.4c-5.2,0.2-10.3,0.1-15.5,0c-2.2,0-4.3,0.3-6.1,1.7
		c-2.3-2.5-4.5-5-5.9-8.1c0.7-0.8,1.6-1.2,2.6-1.3c7.7-0.5,15.5-0.5,23.2,0C46,161.8,47.1,162.4,48.1,163z"/>
	<path class="st27" d="M181.9,97.1c-1.2-2.9-1.7-6-1.9-9.1c8.3-0.5,16.7-0.9,25,0.1c2.5,0.7,0.4,3.6,2.1,4.7
		c0.8,0.6,0.8,1.4,0.6,2.2c-1.7,1.7-3.9,1.4-6,1.5c-6,0.1-12.1-0.2-18.1,0.3C183.1,96.9,182.5,97,181.9,97.1z"/>
	<path class="st28" d="M159,50.1c-4-3.2-7.9-6.3-12.6-10.1c11.3,1.1,21.9,0.7,31.5,6c-1.4,2.7-3.9,3.3-6.7,3.3
		C167.1,49.3,163,49.7,159,50.1z"/>
	<path class="st29" d="M54,47.1c-0.8-3.3-3.5-3.1-5.9-3.1c-6.5,0-12.9,0-19.4,0c-2,0-4,0.1-5.8-1c0.8-1.4,1.4-3.1,2.8-4.1
		c10.5-0.9,21.1-0.3,31.6-0.3c1.5,0,3.4,0.2,3.6,2.5C58.7,43.1,56.4,45.1,54,47.1z"/>
	<path class="st30" d="M182.1,96.2c1.1-1.8,2.9-1.1,4.5-1.1c7.1-0.1,14.1,0,21.2,0c0.1,1,0.2,2,0.4,3l-0.4-0.1
		c-0.7,0.9,0.1,2.2-0.8,3c-8,0-16,0-24,0C181.9,99.5,183.1,97.6,182.1,96.2z"/>
	<path class="st31" d="M25,171.1c-0.5-2.1-0.3-3.3,2.5-3.2c6.2,0.2,12.5,0,18.8,0.1c2.6,0.1,4.9-0.4,6.9-2.1c2.7,1.7,5.4,3.3,8.1,5
		c-9.5,2-19.1,0.6-28.6,1.1c-1.9,0.1-4-0.8-5.6,1.1C26.3,172.5,25.6,171.8,25,171.1z"/>
	<path class="st32" d="M184,108c7.7,0,15.3,0,23,0c1.1,1.5-0.1,3.4,0.8,5c0.2,1.5,0.5,3-0.8,4.2c-0.5-0.2-1-0.4-1.4-0.8
		c-4.1-1.8-8.4-0.7-12.6-1c-2.8-0.2-5.5,0.3-8.3-0.6c-0.5-0.2-0.9-0.6-1.2-1.1C183.6,111.8,183.1,109.9,184,108z"/>
	<path class="st33" d="M198.1,63.8c-0.5,1.1-1.3,2.2-2.5,2.1c-8.3-0.3-16.6,1.2-24.8-0.8c-1.1-0.7-1.7-1.6-1.8-2.9
		c5.8-2.4,11.9-0.5,17.8-1.2c2.8-0.3,6,1.2,8.1-1.9C195.4,61,198.2,61.4,198.1,63.8z"/>
	<path class="st34" d="M178,145.9c0.2-3.1,1.2-6,2.2-8.8c3.9,2.8,8.4,2.5,12.8,2.5c2.9,0.1,6-0.8,8.5,1.5c-0.6,2-0.9,4.2-2.3,5.9
		c-6.7,2.9-13.6,1.3-20.5,1.2C177.5,148.2,177.3,146.9,178,145.9z"/>
	<path class="st35" d="M159,50.1c1.7-2.3,4.2-2.1,6.7-2.1c4.2,0,8.4,0.6,12.2-2c3.7,1.5,7.4,3,10.2,6c-6.3,2.2-12.7,0.5-19.1,1.1
		c-2,0.2-4.3-0.8-6.1,1.1C161.6,52.8,160.3,51.4,159,50.1z"/>
	<path class="st36" d="M206,89c-7.7,0.3-15.5-0.7-23.2,0.6c-1.6,0.3-1.8-1.2-2.8-1.6c-0.8-0.8-1.1-1.9-0.9-3c0.6-1.6,2-2.2,3.5-2.3
		c6.9-0.4,13.8-0.5,20.7,0c1,0.1,1.9,0.6,2.6,1.3c1,1.2,1.3,2.5,0.9,4C206.7,88.5,206.4,88.8,206,89z"/>
	<path class="st37" d="M201.5,141.1c-5,0-10-0.3-15,0c-3.4,0.2-5.3-1-6.4-4.1c-0.3-1.2,0-2.2,0.8-3c6.3-1.2,12.7-0.5,19.1-0.3
		c1.3,0,3.1,0.2,3,2.4C203.1,138,202.3,139.5,201.5,141.1z"/>
	<path class="st38" d="M81,150.1c2.6-0.9,4.7,0.6,5.6,2.5c1.1,2.3-0.5,4.8-1.1,7.1c-0.4,1.4-2.4,0.6-3.5,0.3
		c-5.3-1.4-10.4-3.5-14.8-7c1.5-3.7,4.9-3.2,8-3.4C77.1,149.4,79,150.3,81,150.1z"/>
	<path class="st35" d="M20.1,49c8.6,0,17.2,0,25.8,0c1.7,0,3.7-0.7,5.1,1.1c-1.3,1.3-2.6,2.7-4,4c-1.7-1.9-4-1-6-1.1
		c-5.6-0.1-11.1-0.1-16.7,0c-2.1,0-3.9-0.1-5.2-2C19.5,50.4,19.8,49.7,20.1,49z"/>
	<path class="st39" d="M11.2,149c-1.2-1.7-2-3.6-2.3-5.7c-1-2.3,0.6-3.2,2.3-3.3c4.5-0.3,9.1-1.3,13.7,0.1c2.2,1.5,3.9,3.5,5.2,5.9
		c-0.3,2.9-2.8,2.5-4.5,2.5C20.8,148.5,16,148.6,11.2,149z"/>
	<path class="st40" d="M17.2,75c-0.3-2-0.5-4-0.8-6c0.4-4,2.8-5.7,6.7-5.4C28.2,64,33.6,62,38.1,66c-1.1,2-2.2,4-3.2,6
		c-1.8,1.3-3.8,0.5-5.7,0.4C24.9,72.3,20.7,72,17.2,75z"/>
	<path class="st41" d="M14.9,156.1c-1.1-0.8-1.4-1.9-1.8-3.1c0.4-2.8,2.4-3.3,4.7-3.4c5.4-0.1,10.8-0.5,16.3,0.3
		c1.7,1.6,3.4,3.3,5,4.9c0.2,1.3-0.7,2-1.7,2.1C29.9,157.3,22.3,158.8,14.9,156.1z"/>
	<path class="st42" d="M61.1,41.1C59.7,39.4,57.7,40,56,40c-8.1-0.1-16.2,0-24.4,0c-2,0-4,0-5.8-1.1c1-1.3,2.1-2.6,3.1-3.9
		c1.5,1.9,3.5,2.1,5.7,2.1c8.4-0.1,16.9-0.1,25.3,0c1.7,0,3.7-0.7,5.1,1.1C64.1,39.7,62.5,40.2,61.1,41.1z"/>
	<path class="st43" d="M203.1,136.1c-2.4-2.2-5.3-0.8-8-1.1c-4.7-0.5-9.5,1-14.1-1c0.2-1.8-0.6-3.7,0.9-5.2c0.9-0.1,1.8-0.2,2.7-0.3
		c5.1,0,10.3-0.3,15.4,0.1c2.2,0.1,5.1,0.1,4.1,3.8C203.9,133.7,204.4,135.2,203.1,136.1z"/>
	<path class="st44" d="M182.2,125c-0.2-1.5-0.4-3,0.7-4.2c1.1,0,1.9-0.8,2.9-1c6.6-0.2,13.2-1.2,19.7,0.6c0.2,0.2,0.4,0.4,0.6,0.6
		c-0.1,0.7-0.1,1.3-0.2,2c-0.3,2.5-1.3,4.3-4.2,4.3c-5.9,0-11.8,0.6-17.6-0.4C183.1,126.6,182.5,125.9,182.2,125z"/>
	<path class="st45" d="M187,168c-1.5,2.1-2.8,4.5-5,6.1c-2.7-1.3-5.5-1.8-8.4-1.8c-2.2,0-4.7,0.2-5.8-2.4c1-2,2.1-4,3.1-6
		c4.4-0.8,8.9-0.3,13.3-0.1C186.6,163.9,188.3,165.1,187,168z"/>
	<path class="st46" d="M175.1,74c1.3-1.8,3.1-2,5.2-2c7.3,0,14.6-0.1,21.9-0.2c1.1,0.7,0.8,1.9,1,2.9c0,3.1-2.5,2.5-4.2,2.7
		c-3.6,0.4-7.2,0.2-10.8,0.1c-3.8-0.1-7.5,0.2-11.1,1.5C176,77.5,175.1,75.9,175.1,74z"/>
	<path class="st47" d="M48.1,163c-9.7,0-19.4,0-29,0c-0.7-1-1.3-2-2-3c0.6-1.6,2-2.2,3.5-2.2c7.8,0,15.7-1.3,23.4,1.2
		C45.6,160,47.3,161.1,48.1,163z"/>
	<path class="st48" d="M69.8,57.9c3.4-4.1,8.3-5.8,12.6-8.6c4.9,9.8,4.9,9.8-2.4,12.8C76.7,60.6,72.2,61.9,69.8,57.9z"/>
	<path class="st49" d="M205.9,84c-7,0-14.1,0-21.1,0c-2,0-3.9-0.1-5.7,1c-1.2-1-1.1-2.5-1.3-3.9c0.7-1.8,2.3-2.4,4-2.5
		c6.7-0.4,13.3-0.4,20,0c1.2,0.1,2.3,0.5,3.1,1.4C205.7,81.2,206.2,82.5,205.9,84z"/>
	<path class="st50" d="M204.9,80c-7.1,0-14.3,0-21.4,0c-2,0-4,0.1-5.8,1.1c-0.9-0.5-0.7-1.3-0.7-2.1c1.1-2.2,2.7-3.2,5.4-3.1
		c5.4,0.3,10.9,0.1,16.3,0.1c1.6,0,3.4,0.4,4.5-1.3C204.3,76.3,205,78,204.9,80z"/>
	<path class="st33" d="M38.1,66c-4.6-1.1-9.2-0.9-13.8-1.1c-3.7-0.2-6.3,0.7-7.9,4c-0.9-3.4,0.3-6.6,0.8-9.9c1.3,2.3,3.6,1.8,5.7,2
		c6,0.5,12.2-1.2,18.1,0.9C40.2,63.4,39.5,65,38.1,66z"/>
	<path class="st41" d="M174.9,154.8c-0.1-1.4,0.3-2.7,1.3-3.8c7-2.5,14-2.6,21,0c-0.5,2.3-1.6,4.2-3,6c-5.2,0.9-10.5,0.3-15.8,0.3
		C176.9,157.3,174.9,157.3,174.9,154.8z"/>
	<path class="st37" d="M24.8,140c-3.8,1.5-7.8,0.9-11.7,1c-1.8,0.1-3.8-0.5-4.2,2.2c-1.6-2.5-2.5-5.3-2.8-8.2c4.3-2.5,9.2-1,13.8-2
		C20.8,135.9,24.6,136.7,24.8,140z"/>
	<path class="st51" d="M20.1,85c-1.2-1.8-1.8-3.8-2-6c0.2-2.9,1.7-4.5,4.6-4.4c3.5,0.1,7.2-1,10.3,1.4c-1,2.7-2,5.5-3,8.2
		C26.8,84.2,23.4,84.5,20.1,85z"/>
	<path class="st38" d="M91.2,153c0-0.8-0.5-1.8,0.9-1.9c3,0.3,6,1.1,8.9-0.5c1.6-0.5,3.7-1.9,4,1.1c0.2,2.1,3.5,5.6-1.8,6.4
		c-2,0.9-4.3,0.1-6.2,1.3c-1.6,0.1-3.2,0.3-4.8-0.1C90.8,157.3,92.1,155,91.2,153z"/>
	<path class="st52" d="M183,126c6,0,11.9-0.2,17.9,0.1c2.6,0.1,4-0.9,4.9-3c0.7,3.4-0.4,6.4-1.7,9.4c-0.3-2.6-2.2-2.4-4-2.4
		c-5.7,0-11.4,0-17.1,0C182.3,128.7,182.3,127.3,183,126z"/>
	<path class="st53" d="M129.9,68.8c3.8,1.1,6.8,2.6,9.6,4.3c1.4,0.9,1,2.1-0.1,2.8c-1.7,1.1-2,4.6-5.2,3.1c-1.9-0.9-3.9-1.7-5.8-2.6
		c-0.9-0.5-3.1-0.2-1.8-2.5C127.6,72.1,127.7,69.5,129.9,68.8z"/>
	<path class="st54" d="M149,192.9c0.3-0.3,0.7-0.6,1-0.9c2.9-1.8,4.8-4.8,7.7-6.7c1.8-0.7,3.7-0.6,5.5,0.1c1.5,0.9,3,1.8,1.9,3.9
		c-3.9,2.8-7.5,6.1-12.1,7.6C151.5,195.7,147.7,196.9,149,192.9z"/>
	<path class="st55" d="M34,149.9c-5,2.4-10.2,0.6-15.3,1c-2.1,0.2-4.3-0.1-5.6,2c-0.6-1.3-1.3-2.7-1.9-4c1.3-2.3,3.5-1.8,5.6-2
		c4.4-0.4,9,1.3,13.3-1.1C31.4,147.2,32.7,148.6,34,149.9z"/>
	<path class="st56" d="M197.1,151c-7,0-14,0-21,0c0.1-1.9,0.8-3.6,1.8-5.1c0.1,1.2,0.7,1.4,2,1.3c6.4-0.2,12.8-0.1,19.2-0.2
		C198.9,148.6,198.3,149.9,197.1,151z"/>
	<path class="st22" d="M167.8,169.9c3.1,1.8,6.4,1,9.7,1.1c2.3,0.1,4.4,0.2,4.6,3.1c-1.3,1.3-2.6,2.7-4,4c-4.7-1.2-9.8,0.5-14.2-2.2
		C165.2,173.9,166.5,171.9,167.8,169.9z"/>
	<path class="st57" d="M19.9,133c-2.2,3.2-5.6,1.7-8.5,1.9c-1.8,0.2-3.5,0-5.3,0c-1.4-1.8-1.2-4-1.9-6c4.1-2.3,8.5-1.7,12.8-1
		C18.2,129.5,19.6,130.9,19.9,133z"/>
	<path class="st58" d="M33.1,76c-3.2,0-6.5,0.2-9.7-0.1c-2.7-0.2-4.2,0.7-5.3,3c-0.1-1.4-1.6-2.4-1-4c0.8-3,2.5-4.5,6-4.1
		c3.9,0.5,7.9-0.4,11.8,1.1C34.3,73.3,34.3,75,33.1,76z"/>
	<path class="st59" d="M44,158.9c-7.1,0-14.1,0.1-21.2,0.1c-2,0-4-0.2-5.8,1c-0.7-1.3-1.5-2.6-2.2-3.9c6.6,0,13.1,0,19.7-0.1
		c1.6,0,3.3,0.5,4.5-1.1C40.7,156.2,42.4,157.6,44,158.9z"/>
	<path class="st60" d="M69.8,57.9c2.4,1,4.8,2.1,7.5,2.1c1.5,0,2.6,0.4,2.7,2.1c-1.4,1.2-2.9,2.1-4,3.5c-2.3,2.9-4.1,2.5-6.8,0.3
		C65.2,62.6,65.7,60.3,69.8,57.9z"/>
	<path class="st61" d="M193,159c-0.8,2.3-2.2,4.3-3.9,6.1c-3.4-1.5-7.1-0.9-10.7-1.1c-2.4-0.1-5,0.6-7.3-1c0.5-1,1.1-2,1.6-3.1
		c1.1-1.3,2.5-2.4,4.2-2.3C182.3,158,187.9,156.1,193,159z"/>
	<path class="st62" d="M163,186c-2,0-4,0-6,0c-0.4,0.4-0.7,0.4-1.1,0c1.7-2,3.4-4,5.1-5.9c3.8-1.5,7.7-0.3,11.5,0.1
		c0.9,0.1,1.9,0.7,1.5,2c-1.7,2.7-4.6,4-7.1,5.8C165.8,187,164.4,186.6,163,186z"/>
	<path class="st17" d="M174.1,182.1c-4.1-2.3-8.9-0.2-13-2.1c1-1.4,1.9-2.7,2.9-4.1c4.7,0.9,10-1.9,14.2,2.2
		C177,179.8,175.7,181.1,174.1,182.1z"/>
	<path class="st36" d="M20.1,85c3.1-3.1,6.5-2.7,10.1-0.7c-0.6,2.6-1.2,5.3-1.9,7.9c-1.8,0.7-3.6,0.7-5.4-0.1
		C21.2,90,20.3,87.6,20.1,85z"/>
	<path class="st63" d="M152,82.2c1.6,1.1,2.4,2.9,3.4,4.6c1.6,2.8-0.3,4-2.4,4.8c-1.7,0.7-3.6,3.1-5.2-0.3c-1.1-2.2-2.7-4.1-4.1-6.1
		C146,82.9,149.5,84,152,82.2z"/>
	<path class="st64" d="M163.3,106.9c0.8,0.5,0.6,1.3,0.5,2.1c-3.7,1.1-7.2,0.9-10.6-1c0-2,0-4-0.1-6c2.9-3.4,6-3.1,9.2-0.5
		C163,103.2,161.6,105.4,163.3,106.9z"/>
	<path class="st65" d="M59.2,76c0.5-1.2,1-2.4,1.5-3.5c3-6.1,4.5-6.3,9-1.1c2.1,2.4-1.1,3.8-1.8,5.6C64.9,77.6,61.9,77.9,59.2,76z"
		/>
	<path class="st66" d="M2.2,117c1-0.8,0.8-1.9,0.8-3c2.3-0.1,4.8,0.4,6.9-1c1.5,2.1,2.2,4.6,2.9,7c-3.1,2.8-6.4,3.1-10,1
		C1.8,119.8,2,118.4,2.2,117z"/>
	<path class="st67" d="M153.2,108c3.6,0,7.2-0.4,10.6,1c-0.7,1.9,2.4,5.6-1.8,5.8C154.9,115.1,152.9,113.2,153.2,108z"/>
	<path class="st68" d="M193,159c-6.7,0.5-13.5-1-20.2,0.9c0.4-1.8,0.9-3.6,2.1-5.1c2,2.2,4.7,0.9,7,1.2c4.1,0.5,8.3-0.9,12.2,1.1
		C193.8,157.7,193.4,158.4,193,159z"/>
	<path class="st69" d="M162,102c-3-1.8-5.9-1.3-8.9,0c-2.7-4-0.6-5.6,3.1-7.1c3.8-1.5,5.4-0.6,5.9,3.3c0.1,1.2,1.1,2.4,0.7,3.8
		C162.6,102.5,162.3,102.4,162,102z"/>
	<path class="st70" d="M59.2,76c2.9,0.2,5.9-0.7,8.7,1c-0.3,0.8-0.5,1.5-0.8,2.3c-1.8,5.1-4.3,6-8.5,2.6C56.2,80,58.8,78,59.2,76z"
		/>
	<path class="st71" d="M2.9,121c3.4,0.3,6.7-0.5,10-1c0.7,1.3,1.3,2.7,2,4c-2.2,3.9-5.4,4.5-11,2C2.6,124.6,3,122.7,2.9,121z"/>
	<path class="st72" d="M149,192.9c-0.3,2.9,4.1,1.2,4,4c-4.4,2.6-9,4.9-14,6.1c-0.7-0.7-0.6-1.5-0.1-2.3
		C142.3,198.1,145.6,195.5,149,192.9z"/>
	<path class="st73" d="M68.6,107.4c1.5,2.9,3.3,5.3,3.9,7.9c0.4,1.7-2.2,2.7-3.5,2.5c-3.6-0.6-4.6-3.9-4.9-6.9
		C63.7,107.7,67.4,109.7,68.6,107.4z"/>
	<path class="st74" d="M81,150.1c-1.8,1.7-4.1,0.9-6.1,0.9c-2.9-0.1-5.4,0.4-7.7,2.1c-1.5-4.4,3-5.5,4.7-8c1.3-2,2.6,0.9,3.9,1.5
		C77.6,147.4,79.3,148.8,81,150.1z"/>
	<path class="st75" d="M115.3,68.2c1.1,0.2,4.2-0.9,4.2,2.5c0,0.9,0.7,5.4-2.4,3.7c-2.3-1.2-6.9,3-7.1-3
		C109.7,67.8,111.9,67.9,115.3,68.2z"/>
	<path class="st76" d="M152,82.2c-1.4,4.9-5.5,2-8.3,2.9c-0.9-1.1-4.2-2-1.1-3.7c2.1-1.1,3.2-6.7,7.1-2.2
		C150.5,80.1,151.2,81.2,152,82.2z"/>
	<path class="st77" d="M127.2,138c-1.5-0.7-3.1-2.6-3-3.7c0.2-2.5,1.8-5,4-6.3c1.3-0.7,3.4,0.8,4.4,2.4
		C133.3,131.4,128.8,137.8,127.2,138z"/>
	<path class="st78" d="M65.1,94c1.1,1.4,1.3,3.2,0.7,4.7c-0.7,2-2.3,3.4-4.7,3.3c-2.9,0-2.9-2-2.9-4c0.7-1-0.1-2.5,1.1-3.5
		C61.1,93.6,63.1,93.1,65.1,94z"/>
	<path class="st79" d="M121.1,148c-0.9,1.9-2.9,2.7-4.6,3.6c-1.3,0.8-3.3,2.9-4.4,1.2c-1.1-1.8-3.6-4.1-1.2-6.8
		C114.5,146.3,118.4,144,121.1,148z"/>
	<path class="st80" d="M121.1,148c-3.1-2.2-7,0.2-10.1-1.9c2.5-1.9,4.9-3.7,7.8-5.9C118.9,143.1,124.8,143.8,121.1,148z"/>
	<path class="st52" d="M3.8,126.1c3.7-0.8,7.9,1.7,11-2c0.7,1.3,1.4,2.7,2.1,4c-4.2,1.5-8.5,0.9-12.8,1C4,128,3.9,127,3.8,126.1z"/>
	<path class="st81" d="M171.2,163c4.7,0,9.5,0.1,14.2-0.1c1.9-0.1,3,0.5,3.7,2.1c-0.7,1-1.4,2-2.1,2.9c0.2-3-1.7-2.9-3.9-3
		c-4.1-0.2-8.3,1-12.3-1C170.9,163.6,171,163.3,171.2,163z"/>
	<path class="st82" d="M136.2,182.4c-1.1-2.2-4.7-0.7-5.3-3.7c0.7-0.4,1.4-0.9,2.1-1c2.3-0.6,5.3-3.6,6.4-2
		C141.1,178,137.8,180.3,136.2,182.4z"/>
	<path class="st83" d="M22.9,92.1c1.8-1.3,3.6-1.1,5.4,0.1c-0.2,2.7-0.3,5.5-0.5,8.8C25.2,98.1,23.8,95.2,22.9,92.1z"/>
	<path class="st84" d="M94.8,80.2C94,78.8,93,77.7,93,76.8c0.1-2.9,2.9-2.6,4.7-3.1c1.8-0.5,2.1,1.5,2.1,2.4
		C100,79.3,96.1,77.6,94.8,80.2z"/>
	<path class="st85" d="M85.1,127c-0.8,1.4-1.3,3.1-2.7,2.9c-2.1-0.3-4-1.7-4.3-3.9c-0.2-1.2,1.4-3,2.3-2.7
		C82.1,124.1,83.5,125.8,85.1,127z"/>
	<path class="st86" d="M65.1,94c-1.9,1.2-4,1.1-6.1,1c-1.1-1.5,0.1-3.4-0.9-5c0.9-1.9,2-1.1,3.1-0.2c0.9,1.5,2.7,0,3.7,1.2
		C65,92,65.1,93,65.1,94z"/>
	<path class="st87" d="M131.1,116c0-0.8,0-1.7-0.1-2.5c-0.3-2.5,1.2-2.9,3-2.5c2.8,0.6,2.1,2.3,1,4.1c-0.2,0.1-0.4-0.8-0.5-0.2
		c-0.2,0.7,0,1.6-0.5,2.3C132.7,117.7,131.7,117.3,131.1,116z"/>
	<path class="st88" d="M5.1,92.8c-0.4,0.3,0,2.2-1,0.7c-0.8-1.2-0.8-3.1-1.2-4.6c0-2.3,0-4.5,2.2-7.2C5.1,85.9,5.1,89.3,5.1,92.8z"
		/>
	<path class="st5" d="M3,103c-0.3-2.4,1.1-3.2,3.2-3.1c1.2,1.2,0.8,2.7,0.7,4.1C5.4,104.6,3.6,106.2,3,103z"/>
	<path class="st89" d="M207.8,113c-1.4-1.5-0.6-3.3-0.8-5c0-2.3,0-4.7,0-7c0-1.1-0.2-2.2,0.8-3c0.1,4.7,0.2,9.3,0.4,14
		C208.1,112.3,207.9,112.6,207.8,113z"/>
	<path class="st90" d="M100.9,132.6c0,1.8-1.1,1.7-2.3,1.5c-1-0.2-2.5,0.4-2.5-1.5c0-2.9,2.2,0.2,3.2-1.2
		C99.9,130.5,101,131.2,100.9,132.6z"/>
	<path class="st91" d="M129.5,95.3c1,0.6,2.1,1.1,2.3,2.3c0.3,1.6-1,1.3-1.9,1.5c-1.2,0.2-1.8-0.3-1.9-1.6
		C127.9,96.3,128.5,95.8,129.5,95.3z"/>
	<path class="st92" d="M155.9,186c0.4,0,0.7,0,1.1,0c-2,2.4-3.6,5.3-7,6C152,190,154,188,155.9,186z"/>
	<path class="st93" d="M111.9,182.6c-3,2.7-6.5,1.3-9.8,1.1c0-0.1,0.1-0.3,0.1-0.4c0.3-0.1,0.6-0.2,0.9-0.3
		C106.1,182.8,109,182.7,111.9,182.6z"/>
	<path class="st94" d="M184,108c0,2,0,4,0,6c-0.3,0.3-0.6,0.3-0.9,0c-0.1-3-0.1-5.9-0.2-8.9C185,105.4,183.5,107.1,184,108z"/>
	<path class="st95" d="M138.9,200.7c0,0.8,0.1,1.5,0.1,2.3c-1,1.2-2.6,0.9-3.9,1.5c-0.4-0.4-0.5-0.9-0.1-1.4
		C136,201.8,137.4,201.1,138.9,200.7z"/>
	<path class="st96" d="M100.9,150.6c-2.8,2.5-5.8,1.6-8.9,0.5C95,151,98,150.8,100.9,150.6z"/>
	<path class="st97" d="M172,29c0.4-0.4,0.9-0.8,1.3-1.2c1.1,0.4,2.1,1,2.8,2.1c0.3,0.9,0,1.4-1,1C174,30.3,173,29.6,172,29z"/>
	<path class="st98" d="M84.1,88.6c-0.1,0.9-0.6,1.4-1.5,1.5c-1,0-1.6-0.4-1.4-1.3c0.2-1,0.9-1.7,2.1-1.6C84,87.3,84,88,84.1,88.6z"
		/>
	<path class="st99" d="M183.1,114c0.3,0,0.6,0,0.9,0c0,0,0,0,0,0c1.7,2.3,1.7,4.7,0,7c-0.5,0.8-0.8,0.4-1.1-0.2
		C183,118.5,183.1,116.3,183.1,114z"/>
	<path class="st100" d="M58.2,90c1.4,1.5,0.6,3.3,0.9,5c-0.1,1,0.2,2.2-0.8,2.9C57.8,95.3,57.7,92.7,58.2,90z"/>
	<path class="st92" d="M163,186c1.5,0.2,3.6-0.7,4,2c-0.6,0.4-1.3,0.9-1.9,1.3C165.2,187.6,163.7,187.1,163,186z"/>
	<path class="st101" d="M91.9,158.9c1.7,0,3.5,0,5.2,0c0.7-0.4,1.4-0.5,2,0.2c-2.7,1-5.4,1.8-8.1-0.1
		C91.3,158.5,91.6,158.5,91.9,158.9z"/>
	<path class="st102" d="M124.1,17.9c2.7-1.3,5.3-1.7,7.9,0.3c-1.6,0-3.1,0-4.7-0.1C126.2,18.5,125.1,18.8,124.1,17.9z"/>
	<path class="st19" d="M124.1,17.9c1.1,0.1,2.1,0.1,3.2,0.2c-2.3,1.2-4.8,0.8-7.3,0.7c-0.3-0.2-0.4-0.4-0.3-0.6
		c0.1-0.2,0.2-0.3,0.3-0.3C121.3,18,122.7,18,124.1,17.9z"/>
	<path class="st19" d="M131.9,18.1c2.4,0,4.8-0.1,7.2-0.1c0.3,0.2,0.4,0.4,0.3,0.6c-0.1,0.2-0.2,0.3-0.3,0.3
		C136.6,18.9,134.1,19.5,131.9,18.1z"/>
	<path class="st103" d="M134,117c0-1.4,0-2.9,0-4.5c1.5,0.4,0.7,1.7,1.1,2.6c-0.2,1,0.6,2.3-1.1,2.7c-0.3-0.2-0.5-0.4-0.3-0.6
		C133.8,117.1,133.9,117,134,117z"/>
	<path class="st104" d="M175.1,31c0.3-0.3,0.7-0.7,1-1c1.3,0.7,2.4,1.5,3,3.5C177.2,33.1,176.1,32,175.1,31z"/>
	<path class="st105" d="M99.2,159.1c-0.7-0.1-1.3-0.1-2-0.2c1.8-1.7,4-0.6,6-0.9C102.1,159.7,100.5,159,99.2,159.1z"/>
	<path class="st106" d="M139,18.8c0-0.3,0-0.6,0-0.8c1.7,0.4,4.2-1.2,5,1.8C142.3,19.5,140.7,19.2,139,18.8z"/>
	<path class="st107" d="M120,18c0,0.3,0,0.5,0,0.8c-1.6,0.1-3.2,0.2-4.8,0.3C116.3,16.8,118.4,18.6,120,18z"/>
	<path class="st108" d="M206,89c0.3-0.3,0.6-0.6,0.8-1c0.1,1.6,0.2,3.1,0.3,4.7C204.7,92.1,206.6,90.2,206,89z"/>
	<path class="st109" d="M91.9,158.9c-0.3,0-0.5,0.1-0.8,0.1c0-2,0.1-4,0.1-5.9C92.7,154.8,91.8,156.9,91.9,158.9z"/>
	<path class="st110" d="M135,203c0,0.5,0.1,1,0.1,1.4c-1.2,0.8-2.4,0.9-4.2,0.1C132.5,203.9,133.7,203.5,135,203z"/>
	<path class="st111" d="M162,102c0.3,0,0.5,0,0.8,0c0.2,1.6,0.3,3.3,0.5,4.9C161.1,105.8,162.3,103.7,162,102z"/>
	<path class="st112" d="M182.1,96.2c1.6,1.4,0.6,3.2,0.9,4.8c-0.3,0-0.5,0-0.8,0c-0.1-1.3-0.1-2.6-0.2-3.9
		C182,96.8,182.1,96.5,182.1,96.2z"/>
	<path class="st113" d="M65,91c-1.2-0.4-3.1,1-3.7-1.2C62.5,90.3,64.2,89.2,65,91z"/>
	<path class="st114" d="M2.2,93c1.1,1.8,1.6,3.5-0.6,4.9C1.8,96.3,2,94.7,2.2,93z"/>
	<path class="st115" d="M134,117c0,0.3,0,0.6,0,0.9c-1.1-0.4-3.8,1.8-2.9-1.8C132.1,116.4,133,116.7,134,117z"/>
	<path class="st116" d="M183,126c0,1.3,0,2.7,0,4c-0.4-0.4-0.7-0.8-1.1-1.2c0.1-1.3,0.2-2.5,0.3-3.8
		C182.4,125.4,182.7,125.7,183,126z"/>
	<path class="st117" d="M206.9,116.2c0,0.3,0.1,0.7,0.2,1c-0.3,1.3,0.7,3-1,4l-0.1-0.2C205,119.1,203.7,117.2,206.9,116.2z"/>
	<path class="st118" d="M206.9,116.2c-1.6,1.3-0.6,3.2-0.9,4.8c-7.3,0-14.6,0.1-22,0.1c0-2.3,0-4.7,0-7c6.3,0,12.5,0,18.8,0
		C204.4,114,206.7,113.2,206.9,116.2z"/>
</g>
</svg>
