<?xml version="1.0" encoding="utf-8"?>
<!-- Generator: Adobe Illustrator 19.0.0, SVG Export Plug-In . SVG Version: 6.00 Build 0)  -->
<svg version="1.1" id="Layer_1" xmlns="http://www.w3.org/2000/svg" xmlns:xlink="http://www.w3.org/1999/xlink" x="0px" y="0px"
	 viewBox="0 0 269 234" style="enable-background:new 0 0 269 234;" xml:space="preserve">
<style type="text/css">
	.st0{fill:#14BDF0;}
	.st1{fill:#19BEEF;}
	.st2{fill:#1BBEEF;}
	.st3{fill:#1ABEEF;}
	.st4{fill:#1FBEEF;}
	.st5{fill:#20BEEF;}
	.st6{fill:#1DBEEF;}
	.st7{fill:#22BFEE;}
	.st8{fill:#1EBEEF;}
	.st9{fill:#30C0ED;}
	.st10{fill:#24BFEE;}
	.st11{fill:#29C0ED;}
	.st12{fill:#3EC2EB;}
	.st13{fill:#3AC2EB;}
	.st14{fill:#42C2EB;}
	.st15{fill:#C8D5E8;}
	.st16{fill:#5BC5E7;}
	.st17{fill:#47C3EA;}
	.st18{fill:#69C6E6;}
	.st19{fill:#52C4E7;}
	.st20{fill:#56C4E7;}
	.st21{fill:#60C6E7;}
	.st22{fill:#DFE7F1;}
</style>
<g>
	<path class="st0" d="M33.9,108.1c1.5,15.1,7.1,28.5,15.9,40.7c16.7,23.1,38,39.6,66.4,45.8c15.1,3.3,30,2.6,44.6-2.7
		c1.8-0.3,3.3-1.4,5.1-1.8c1.8-0.4,1.8,0.7,1.2,2c-10.9,19.2-26.1,31.4-49.3,29.6c-15.9-1.2-30-7.7-43-16.6
		c-24.8-17-39-40.7-44.3-70c-2.1-12-1.6-24.1,0.8-36.1c0.2-1,0.4-2,1.8-1.9C34.3,100.6,32.7,104.5,33.9,108.1z"/>
	<path class="st0" d="M200,43c-38.8-18.3-75.4-11.9-109.5,11.6C72,67.4,59.8,85.2,56.3,108.1c-0.3,2.1-0.4,4.3-0.7,7.2
		c-5.2-8.2-8.6-16.6-10.4-25.6c-4.4-22.3,6.2-38.3,22.6-51.3c22.5-17.8,48.5-25.1,76.9-22.1c20.3,2.2,38.7,9.9,54.4,23.5
		C199.6,40.8,200.7,41.6,200,43z"/>
	<path class="st0" d="M164.9,216c16.8-11.2,29.3-25.9,36.7-44.7c11.4-28.9,13.1-57.7-0.3-86.5c-5.9-12.5-14.8-22.3-26.4-30.1
		c34.2-1.6,55.9,15.4,60.2,49c3.3,25.7-1.3,49.7-15.2,71.5c-12.7,19.9-30.1,34.3-52.9,41.8C166.1,216.9,165.4,216.7,164.9,216z"/>
	<path class="st1" d="M192,124c-1,1.4,1.8,4.6-2.2,4.8c-5.8,0.3-8.5-1.5-8.6-5.2c-0.1-2.6-0.2-5.3-0.4-7.9c-0.1-1.7-2.1-3.7-0.4-4.8
		c2.1-1.4,4.9-2,7.4-2.6c1.3-0.3,1.7,1.4,2,2.4C191,114.9,191.6,119.4,192,124z"/>
	<path class="st2" d="M114.9,167.6c-0.2,7.1-1.2,7.9-7.7,5.6c-2.5-0.9-4.9-1.9-7.3-3.1c-2.1-1.1-6-2-5.7-3.8c0.3-2.9,3.5-5,5.6-7.3
		c1-1,1.8-0.4,2.5,0.3c3.1,2.7,6.6,4.4,10.5,5.2C114.7,164.8,115.2,166,114.9,167.6z"/>
	<path class="st3" d="M110.5,63.4c0.3,0.5,0.7,0.9,0.8,1.3c0.9,2.7,2.6,5.4,2.4,8c-0.3,2.6-4.1,2.4-6,4c-1.1,1-2.7,1.6-3.5,2.8
		c-2.6,3.5-4.4,2.6-7.4,0.1c-3.4-2.9-2.9-4.6,0-7.1C101,68.8,105.6,65.8,110.5,63.4z"/>
	<path class="st4" d="M98.8,86.6c-2.3,3.5-3.6,7.5-5.4,11.1c-0.7,1.5-4-0.9-6.2-1.4c-1.6-0.3-1.8-1.2-1.3-2.9c1-3.2,2.2-6.3,3.9-9.1
		c0.7-1.1,1.1-3.6,2.7-2.7C94.8,82.9,97.2,84.3,98.8,86.6z"/>
	<path class="st5" d="M175.2,91.1c0.9,0.7,1.6,1.1,2.1,1.7c1.7,2,3.4,4,5,6.1c1,1.4,3,3.5,2,4.6c-1.5,1.7-4.2,2.5-6.4,3.4
		c-1.2,0.5-1.5-1-2-1.7c-1.5-2-3.1-3.9-4.5-5.9c-0.7-1-2.7-1.8-1.6-3.1C171.2,94.3,173.3,92.8,175.2,91.1z"/>
	<path class="st6" d="M123.6,174.1c-1.6-1.1-4.7,1.6-5.1-2.1c-0.5-4.9,1-6.7,5.3-6.9c1.3-0.1,2.7-0.1,3.9-0.5c3.2-1.1,5.2-0.8,6,3.2
		c0.8,3.9-0.7,5.2-4.2,5.4C127.5,173.3,125.6,173.7,123.6,174.1z"/>
	<path class="st7" d="M146.8,154.4c1.2,2,4.6,4,3.5,6.3c-1.6,3.4-5.4,5.2-8.9,6.6c-1.9,0.7-1.8-1.2-2-2c-0.3-1.9-2.7-3.8,0-5.7
		C141.8,157.9,144.2,156.2,146.8,154.4z"/>
	<path class="st7" d="M168.5,87.7c-0.3,3.1-5.1,5.9-7.1,5c-1.2-0.5-2.3-1.3-3.6-1.7c-2.2-0.8-4.5-1-2.8-4.5c1.4-2.8,2.5-4.5,5.8-2.8
		c2,1.1,4.1,2.1,6.2,3.1C167.7,87.2,168.3,87.6,168.5,87.7z"/>
	<path class="st8" d="M93.9,111c0.6,2.8,0,5-4,4.9c-6.1-0.1-3.3-5-4-7.8c-0.4-1.6-1.3-4.7,2.2-4.9C92.6,102.9,93.7,104.3,93.9,111z"
		/>
	<path class="st9" d="M160.7,144.2c0.2,1.9-4.2,8.5-5.1,8.2c-1.9-0.7-4.4-2.7-4-3.8c0.8-2.6,2.7-5.1,4.8-6.9
		C157,141.1,159.8,142.9,160.7,144.2z"/>
	<path class="st10" d="M143,82.2c1.4,0.5,4.8-1.3,4.5,2.5c-0.1,1.2,0.3,5.1-2.8,3.9c-2.2-0.9-6.8,2.7-6.8-3.2
		C137.9,81.6,140.1,82,143,82.2z"/>
	<path class="st11" d="M96.1,122c3,1.4,3.1,4.7,4.3,7.1c1,2-2.3,3.2-3.4,3.1c-3.4-0.4-3.9-3.9-4.7-6.5
		C91.1,122.4,94.6,123.4,96.1,122z"/>
	<path class="st12" d="M128.3,90.4c-0.8,2.5-3.4,2-5,2.8c-2.1,1.1-2.6-1.5-2.6-2.5c0.1-2.8,2.9-2.8,4.8-3.3
		C127.7,86.9,127.5,89.1,128.3,90.4z"/>
	<path class="st13" d="M163.8,128.4c-1,1,0.4,4.1-3.1,3.7c-1.8-0.2-2.8-0.5-1.9-2.6c0.7-1.7-1-4.7,2.9-4.4
		C164.1,125.2,164,126.6,163.8,128.4z"/>
	<path class="st14" d="M108.9,138.1c1.5,1.6,6.5,1.8,2.6,5.8c-0.9,1-1.8,0.3-2.5-0.5C108.1,141.6,103.6,139.8,108.9,138.1z"/>
	<path class="st15" d="M33.9,108.1c-1.6-3.6-0.6-7.4-0.9-11.1c-0.3-2.7-1.2-5.4,0.9-8.7C33.9,95.5,33.9,101.8,33.9,108.1z"/>
	<path class="st16" d="M200,43c-0.6-1-1.1-2-0.8-3.2c3.4,1.6,5.6,4.3,7.6,7.5C204.3,46.1,201.8,45.1,200,43z"/>
	<path class="st0" d="M157.6,108.2c1.8,0.5,1.8,2.2,2.1,3.4c0.4,1.4-1.3,1.5-2,1.6c-1.9,0.2-1.6-1.8-2.1-2.8
		C154.9,108.8,156.8,108.9,157.6,108.2z"/>
	<path class="st17" d="M129,146.5c-0.1,1.2-0.1,2.4-1.5,2.1c-1.4-0.4-3.6,0-3.4-2.5c0.1-0.8,0.2-2,1.2-1.6
		C126.6,145,128.8,144.2,129,146.5z"/>
	<path class="st18" d="M112,104c-0.3,2.2-1.3,1.8-2.6,0.8c-1.8-1.4-0.6-2.6,0.2-3.7c0.9-1.3,2.1-1.5,3.4-0.4
		C114.8,102.4,113.3,103.2,112,104c-0.2-0.2-0.3-0.3-0.3-0.3C111.6,103.6,111.7,103.7,112,104z"/>
	<path class="st19" d="M167.1,192.1c-0.2-1-0.4-1.9-1.8-1.2c-1.4,0.7-2.8,1.4-4.5,1c2.9-1.5,5.7-3,9.4-4.9
		C169.1,189.4,168.5,190.9,167.1,192.1z"/>
	<path class="st20" d="M108.9,138.1c-3.6,1.8-0.1,3.5,0,5.3c-1.5-1-4.1-1.4-2.9-4.1C106.3,138.4,106.9,136,108.9,138.1z"/>
	<path class="st21" d="M158.1,219.1c1.5-0.9,2.9-2.1,4.8-2.1c1.1-0.4,1.2,0.1,1.1,1c-1.7,1.5-3.8,2-6,2c-0.3-0.2-0.4-0.4-0.2-0.6
		C157.9,219.2,158,219.1,158.1,219.1z"/>
	<path class="st0" d="M164,218c-0.4-0.3-0.7-0.7-1.1-1c0.4-0.8,1.2-0.9,2-1c0.7,0.3,1.4,0.6,2,0.9C166.3,218.1,165.1,217.8,164,218z
		"/>
	<path class="st22" d="M158.1,219.1c-0.1,0.3-0.1,0.6-0.1,0.8c-0.4,0.8-1,1.2-1.9,0.9c-0.2-0.1-0.4-0.5-0.4-0.7
		C156.2,219.1,157.2,219.1,158.1,219.1z"/>
	<path class="st0" d="M112,104c-0.9-0.2-2.2-0.1-1.6-1.7c0.1-0.3,0.7-0.4,1.1-0.7C111.7,102.5,111.9,103.2,112,104
		C112,104,112,104,112,104z"/>
</g>
</svg>
