<?xml version="1.0" encoding="utf-8"?>
<!-- Generator: Adobe Illustrator 19.0.0, SVG Export Plug-In . SVG Version: 6.00 Build 0)  -->
<svg version="1.1" id="Layer_1" xmlns="http://www.w3.org/2000/svg" xmlns:xlink="http://www.w3.org/1999/xlink" x="0px" y="0px"
	 viewBox="-171 280 269 234" style="enable-background:new -171 280 269 234;" xml:space="preserve">
<style type="text/css">
	.st0{fill:#1C499E;}
	.st1{fill:#1D4B9F;}
	.st2{fill:#1D4A9F;}
	.st3{fill:#1D4BA0;}
	.st4{fill:#1E4CA0;}
	.st5{fill:#1F4DA1;}
	.st6{fill:#1E4BA0;}
	.st7{fill:#204DA1;}
	.st8{fill:#2152A4;}
	.st9{fill:#2354A5;}
	.st10{fill:#2E68B0;}
	.st11{fill:#2A64AE;}
	.st12{fill:#3473B7;}
	.st13{fill:#3C7BBB;}
	.st14{fill:#C8D5E8;}
	.st15{fill:#316FB4;}
	.st16{fill:#3C72B5;}
	.st17{fill:#3578BA;}
	.st18{fill:#3A7ABB;}
	.st19{fill:#5BBEE4;}
	.st20{fill:#52C4E7;}
	.st21{fill:#CED8EA;}
</style>
<g>
	<path class="st0" d="M-2.8,470.2c-9.8,21.2-30.5,34.2-51.5,31.7c-18.2-2.2-34.2-9.8-48.3-21.3c-26.9-21.9-39.5-50.6-39.2-85
		c0.1-6.6,0.9-13.2,2.8-19.6c2.3,0,1.3,1.8,1.4,2.9c0.3,2.7-0.4,5.5,0.4,8.2c1.5,17.2,8.4,32.3,19,45.7
		c16.4,20.8,36.7,35.9,63.1,41.5c17.6,3.8,34.7,2.4,51-5.5C-3,468.8-2.6,469.2-2.8,470.2z"/>
	<path class="st0" d="M9,334.2c13.4,0.9,26.3,3.2,37,12.3c10.7,9,15.7,21,17.7,34.1c3,19.4,1.8,38.8-5.9,57.2
		c-12.4,29.9-33.7,50.3-64.7,60.4c-1,0.4-2.1,1-2.1-0.9c27.9-16.2,41.3-41.8,46.9-72.3c4.5-24.5,0.3-47.5-12.8-68.8
		c-4.9-8-11.8-14.3-19.3-20C5.7,333.4,8.3,335.2,9,334.2z"/>
	<path class="st0" d="M29,323c-30.9-15.5-61.9-13.1-92.1,1.2c-27.8,13.1-47.1,34.1-51.9,66c-0.1,0.9,0.5,2.3-0.8,2.6
		c-1.8,0.4-2.1-1.3-2.7-2.4c-14.3-28.4-10.7-51.4,15.2-71.9c22.5-17.9,48.5-25.2,76.9-22.2c20.8,2.2,39.7,10.1,55.5,24.4
		C30.4,322.6,30.4,322.6,29,323z"/>
	<path class="st1" d="M-55.9,447.6c-0.4,1.8-1,3.5-1.1,5.3c-0.2,2.4-1.5,2.2-3.1,1.8c-5.6-1.5-10.8-4-15.8-6.9
		c-1.8-1.1-1.6-2.1-0.4-3.5s2.5-2.7,3.6-4.1c1.5-1.8,2.7-2.4,4.8-0.5c2.6,2.3,5.7,3.8,9.3,4.4C-56.7,444.4-55.4,445.3-55.9,447.6z"
		/>
	<path class="st2" d="M-61,343.5c1.3,0,1.5,0.9,1.8,1.8c0.6,1.7,1.1,3.4,1.8,5.1c0.9,2.2,0.7,3.7-1.8,4.5c-3.4,1.1-6.3,3.2-8.5,5.8
		c-2,2.4-3.3,1.6-5.2-0.1c-5.4-4.8-5.5-4.9,0.3-9.7C-69.1,347.9-65.2,345.5-61,343.5z"/>
	<path class="st3" d="M21.2,404.2c-1.2,1.4,1.7,4.6-2.3,4.7c-6.1,0.2-8.7-1.5-8.9-5.4c-0.1-2.9,0.6-5.9-0.8-8.8
		c-1.5-3,0-4.5,2.9-5.5c5.7-2,6.3-1.9,7.6,4.1C20.4,396.8,20.7,400.4,21.2,404.2z"/>
	<path class="st4" d="M-72,366.9c-2.8,3.2-3.5,7.6-5.8,11.1c-0.7,1.1-4.4-1-6.7-1.8c-2.2-0.8-0.8-2.2-0.5-3.2
		c0.8-2.5,1.8-4.9,2.9-7.3c0.8-1.7,1.7-4.5,3.6-4c2.2,0.5,4.1,2.7,6,4.2C-72.3,366-72.2,366.4-72,366.9z"/>
	<path class="st5" d="M4.1,371.5c1.3,0.1,2.1,1,2.9,1.8c1.5,1.8,3,3.5,4.3,5.5c3.1,4.6,1.6,7.5-4,8.3c-1.6,0.2-1.9-0.8-2.5-1.8
		c-1.3-1.9-2.8-3.7-4.2-5.6c-0.8-1.1-2.8-2-1.7-3.7C0.2,374.1,2,372.6,4.1,371.5z"/>
	<path class="st6" d="M-46.8,454.1c-2.2-0.5-5.1,0.9-5.7-1.1c-0.7-2.1,0.2-4.8,0.6-7.3c0.2-1.4,1.6-0.7,2.5-0.8
		c2.1-0.1,4.3,0.1,6.4-0.6c2.9-1.1,5.2-1,5.8,3c0.6,3.5,0.2,5.8-4,5.9C-43.2,453.3-45.1,453.9-46.8,454.1z"/>
	<path class="st7" d="M-77,390.8c1.4,4.1-0.5,5.7-5,5.3c-2.1-0.2-3-0.9-3-2.9c0-1.1-0.5-2.3-0.5-3.4c0-2.5-1.8-6.3,2.5-6.6
		c3.3-0.2,7.1,0.5,6,5.7C-77.1,389.3-77,389.8-77,390.8z"/>
	<path class="st4" d="M-24.1,434.2c1.3,2.4,4.8,4.3,3.5,6.7c-1.7,3.3-5.4,5.2-9,6.6c-1.9,0.7-2.1-1.1-2.2-1.8c-0.3-2-3-4.1,0-6.1
		C-29.3,437.8-26.9,436.1-24.1,434.2z"/>
	<path class="st8" d="M-13.3,362.8c4,0.9,6.9,2.5,9.7,4.3c1.4,0.9,1,2.1-0.1,2.8c-1.7,1-1.7,4.8-5.1,3.2c-1.9-0.9-3.9-1.7-5.8-2.6
		c-1-0.5-3-0.5-1.8-2.6C-15.5,366.1-15.3,363.5-13.3,362.8z"/>
	<path class="st7" d="M-69.9,408.8c-0.5,2.7-3.2,3.8-4.3,3.6c-3.3-0.6-3.9-3.9-4.8-6.7c-1.1-3.6,2.6-3.5,3.9-3.4
		C-71.1,402.5-72.9,407.5-69.9,408.8z"/>
	<path class="st9" d="M-10.2,424.5c0.1,1.8-4.2,8-5.3,7.7c-2-0.5-4.3-2.4-3.9-3.9c0.7-2.5,2.7-4.9,4.8-6.5
		C-13.9,421.2-11,422.6-10.2,424.5z"/>
	<path class="st9" d="M-33.1,364.4c-0.5-3.4,2.8-2.3,5-2.2c1.9,0,5-0.8,4.7,2.5c-0.1,1.2,0.5,5.1-2.7,3.9
		C-28.4,367.7-33,371.1-33.1,364.4z"/>
	<path class="st10" d="M-57.9,421.1c-0.7,1.5-1.2,3.2-2.7,2.9c-2.1-0.3-4.1-1.6-4.6-3.9c-0.2-1.3,1.1-3,2.4-2.6
		C-60.9,418.1-59.1,419.4-57.9,421.1z"/>
	<path class="st11" d="M-12.3,410c0.7-2.3-0.9-5.3,3-5c2.1,0.2,2.6,1.4,2,3s0.3,4.3-3,4.1C-12.3,412-12.8,411.1-12.3,410z"/>
	<path class="st12" d="M-45.4,367.4c1.9,0,2.2,1.5,2.2,2.7c0,3-3,2.3-4.7,3.1c-1.6,0.8-2.2-1.3-2.2-2.4
		C-50,367.8-47,368.4-45.4,367.4z"/>
	<path class="st13" d="M-61,386.1c-0.5-0.8-1.8-1.9-1.6-2.7c0.3-1.5,1.3-3.2,3.1-3.3c1-0.1,2.5,0.7,2.2,2
		C-57.7,383.6-58.7,384.9-61,386.1z"/>
	<path class="st14" d="M-137.1,387.1c-2-3.5,0.6-7.7-1.9-11.1c0.7-2.2,0.1-4.8,1.9-7.5C-137.1,375.1-137.1,381.1-137.1,387.1z"/>
	<path class="st15" d="M-14,393.4c-1.5,0.1-1.2-2-1.6-3.1c-0.6-1.5,1.2-1.9,2.1-2c2.2-0.3,1.8,2,2.3,3.1
		C-10.5,392.9-12.2,393-14,393.4z"/>
	<path class="st16" d="M-42,426.6c-0.1,1.1-0.1,2.4-1.5,2c-1.4-0.3-3.7,0.2-3.5-2.5c0.1-1.1,0.3-2.1,1.7-1.5
		C-44.1,425.2-41.9,424.1-42,426.6z"/>
	<path class="st17" d="M29,323c1.1-0.7-0.1-1.5,0.1-2.3c3.2,1.2,4.8,4.1,6.8,6.5C33.3,326,30.7,325.2,29,323z"/>
	<path class="st18" d="M-8.9,497.2c0.7,0.3,1.4,0.6,2.1,0.9c-1.8,1.3-4,1.8-6.2,2c-0.2-0.2-0.3-0.5-0.2-0.7s0.2-0.3,0.3-0.3
		C-11.6,498.4-10.3,497.8-8.9,497.2z"/>
	<path class="st19" d="M9,334.2c-0.8,1-2.7,0.2-3.1,1.9c-0.9-0.3-1.9-0.5-2.2-1.8C5.6,333.7,7.3,333.8,9,334.2z"/>
	<path class="st20" d="M-2.8,470.2c-0.4-0.4-0.8-0.9-1.2-1.3c0.8-0.8,1.5-1.6,2.7-1.1C-1.7,468.6-2.3,469.4-2.8,470.2z"/>
	<path class="st21" d="M-13,499c0,0.4,0,0.7-0.1,1.1c-0.7,0.9-1.8,1.4-2.2,0.2C-15.4,499.4-14,499-13,499z"/>
</g>
</svg>
