<?xml version="1.0" encoding="utf-8"?>
<!-- Generator: Adobe Illustrator 19.0.0, SVG Export Plug-In . SVG Version: 6.00 Build 0)  -->
<svg version="1.1" id="Layer_1" xmlns="http://www.w3.org/2000/svg" xmlns:xlink="http://www.w3.org/1999/xlink" x="0px" y="0px"
	 viewBox="0 0 269 234" style="enable-background:new 0 0 269 234;" xml:space="preserve">
<style type="text/css">
	.st0{fill:#1C499E;}
	.st1{fill:#1D4B9F;}
	.st2{fill:#1D4A9F;}
	.st3{fill:#1D4BA0;}
	.st4{fill:#1E4CA0;}
	.st5{fill:#1F4DA1;}
	.st6{fill:#1E4BA0;}
	.st7{fill:#204DA1;}
	.st8{fill:#2152A4;}
	.st9{fill:#2354A5;}
	.st10{fill:#2E68B0;}
	.st11{fill:#2A64AE;}
	.st12{fill:#3473B7;}
	.st13{fill:#3C7BBB;}
	.st14{fill:#C8D5E8;}
	.st15{fill:#316FB4;}
	.st16{fill:#3C72B5;}
	.st17{fill:#3578BA;}
	.st18{fill:#3A7ABB;}
	.st19{fill:#5BBEE4;}
	.st20{fill:#52C4E7;}
	.st21{fill:#CED8EA;}
</style>
<g>
	<path class="st0" d="M168.2,190.2c-9.8,21.2-30.5,34.2-51.5,31.7c-18.2-2.2-34.2-9.8-48.3-21.3c-26.9-21.9-39.5-50.6-39.2-85
		c0.1-6.6,0.9-13.2,2.8-19.6c2.3,0,1.3,1.8,1.4,2.9c0.3,2.7-0.4,5.5,0.4,8.2c1.5,17.2,8.4,32.3,19,45.7
		c16.4,20.8,36.7,35.9,63.1,41.5c17.6,3.8,34.7,2.4,51-5.5C168,188.8,168.4,189.2,168.2,190.2z"/>
	<path class="st0" d="M180,54.2c13.4,0.9,26.3,3.2,37,12.3c10.7,9,15.7,21,17.7,34.1c3,19.4,1.8,38.8-5.9,57.2
		c-12.4,29.9-33.7,50.3-64.7,60.4c-1,0.4-2.1,1-2.1-0.9c27.9-16.2,41.3-41.8,46.9-72.3c4.5-24.5,0.3-47.5-12.8-68.8
		c-4.9-8-11.8-14.3-19.3-20C176.7,53.4,179.3,55.2,180,54.2z"/>
	<path class="st0" d="M200,43c-30.9-15.5-61.9-13.1-92.1,1.2c-27.8,13.1-47.1,34.1-51.9,66c-0.1,0.9,0.5,2.3-0.8,2.6
		c-1.8,0.4-2.1-1.3-2.7-2.4C38.2,82,41.8,59,67.7,38.5c22.5-17.9,48.5-25.2,76.9-22.2c20.8,2.2,39.7,10.1,55.5,24.4
		C201.4,42.6,201.4,42.6,200,43z"/>
	<path class="st1" d="M115.1,167.6c-0.4,1.8-1,3.5-1.1,5.3c-0.2,2.4-1.5,2.2-3.1,1.8c-5.6-1.5-10.8-4-15.8-6.9
		c-1.8-1.1-1.6-2.1-0.4-3.5c1.2-1.4,2.5-2.7,3.6-4.1c1.5-1.8,2.7-2.4,4.8-0.5c2.6,2.3,5.7,3.8,9.3,4.4
		C114.3,164.4,115.6,165.3,115.1,167.6z"/>
	<path class="st2" d="M110,63.5c1.3,0,1.5,0.9,1.8,1.8c0.6,1.7,1.1,3.4,1.8,5.1c0.9,2.2,0.7,3.7-1.8,4.5c-3.4,1.1-6.3,3.2-8.5,5.8
		c-2,2.4-3.3,1.6-5.2-0.1c-5.4-4.8-5.5-4.9,0.3-9.7C101.9,67.9,105.8,65.5,110,63.5z"/>
	<path class="st3" d="M192.2,124.2c-1.2,1.4,1.7,4.6-2.3,4.7c-6.1,0.2-8.7-1.5-8.9-5.4c-0.1-2.9,0.6-5.9-0.8-8.8
		c-1.5-3,0-4.5,2.9-5.5c5.7-2,6.3-1.9,7.6,4.1C191.4,116.8,191.7,120.4,192.2,124.2z"/>
	<path class="st4" d="M99,86.9c-2.8,3.2-3.5,7.6-5.8,11.1c-0.7,1.1-4.4-1-6.7-1.8c-2.2-0.8-0.8-2.2-0.5-3.2c0.8-2.5,1.8-4.9,2.9-7.3
		c0.8-1.7,1.7-4.5,3.6-4c2.2,0.5,4.1,2.7,6,4.2C98.7,86,98.8,86.4,99,86.9z"/>
	<path class="st5" d="M175.1,91.5c1.3,0.1,2.1,1,2.9,1.8c1.5,1.8,3,3.5,4.3,5.5c3.1,4.6,1.6,7.5-4,8.3c-1.6,0.2-1.9-0.8-2.5-1.8
		c-1.3-1.9-2.8-3.7-4.2-5.6c-0.8-1.1-2.8-2-1.7-3.7C171.2,94.1,173,92.6,175.1,91.5z"/>
	<path class="st6" d="M124.2,174.1c-2.2-0.5-5.1,0.9-5.7-1.1c-0.7-2.1,0.2-4.8,0.6-7.3c0.2-1.4,1.6-0.7,2.5-0.8
		c2.1-0.1,4.3,0.1,6.4-0.6c2.9-1.1,5.2-1,5.8,3c0.6,3.5,0.2,5.8-4,5.9C127.8,173.3,125.9,173.9,124.2,174.1z"/>
	<path class="st7" d="M94,110.8c1.4,4.1-0.5,5.7-5,5.3c-2.1-0.2-3-0.9-3-2.9c0-1.1-0.5-2.3-0.5-3.4c0-2.5-1.8-6.3,2.5-6.6
		c3.3-0.2,7.1,0.5,6,5.7C93.9,109.3,94,109.8,94,110.8z"/>
	<path class="st4" d="M146.9,154.2c1.3,2.4,4.8,4.3,3.5,6.7c-1.7,3.3-5.4,5.2-9,6.6c-1.9,0.7-2.1-1.1-2.2-1.8c-0.3-2-3-4.1,0-6.1
		C141.7,157.8,144.1,156.1,146.9,154.2z"/>
	<path class="st8" d="M157.7,82.8c4,0.9,6.9,2.5,9.7,4.3c1.4,0.9,1,2.1-0.1,2.8c-1.7,1-1.7,4.8-5.1,3.2c-1.9-0.9-3.9-1.7-5.8-2.6
		c-1-0.5-3-0.5-1.8-2.6C155.5,86.1,155.7,83.5,157.7,82.8z"/>
	<path class="st7" d="M101.1,128.8c-0.5,2.7-3.2,3.8-4.3,3.6c-3.3-0.6-3.9-3.9-4.8-6.7c-1.1-3.6,2.6-3.5,3.9-3.4
		C99.9,122.5,98.1,127.5,101.1,128.8z"/>
	<path class="st9" d="M160.8,144.5c0.1,1.8-4.2,8-5.3,7.7c-2-0.5-4.3-2.4-3.9-3.9c0.7-2.5,2.7-4.9,4.8-6.5
		C157.1,141.2,160,142.6,160.8,144.5z"/>
	<path class="st9" d="M137.9,84.4c-0.5-3.4,2.8-2.3,5-2.2c1.9,0,5-0.8,4.7,2.5c-0.1,1.2,0.5,5.1-2.7,3.9
		C142.6,87.7,138,91.1,137.9,84.4z"/>
	<path class="st10" d="M113.1,141.1c-0.7,1.5-1.2,3.2-2.7,2.9c-2.1-0.3-4.1-1.6-4.6-3.9c-0.2-1.3,1.1-3,2.4-2.6
		C110.1,138.1,111.9,139.4,113.1,141.1z"/>
	<path class="st11" d="M158.7,130c0.7-2.3-0.9-5.3,3-5c2.1,0.2,2.6,1.4,2,3c-0.6,1.6,0.3,4.3-3,4.1C158.7,132,158.2,131.1,158.7,130
		z"/>
	<path class="st12" d="M125.6,87.4c1.9,0,2.2,1.5,2.2,2.7c0,3-3,2.3-4.7,3.1c-1.6,0.8-2.2-1.3-2.2-2.4C121,87.8,124,88.4,125.6,87.4
		z"/>
	<path class="st13" d="M110,106.1c-0.5-0.8-1.8-1.9-1.6-2.7c0.3-1.5,1.3-3.2,3.1-3.3c1-0.1,2.5,0.7,2.2,2
		C113.3,103.6,112.3,104.9,110,106.1z"/>
	<path class="st14" d="M33.9,107.1c-2-3.5,0.6-7.7-1.9-11.1c0.7-2.2,0.1-4.8,1.9-7.5C33.9,95.1,33.9,101.1,33.9,107.1z"/>
	<path class="st15" d="M157,113.4c-1.5,0.1-1.2-2-1.6-3.1c-0.6-1.5,1.2-1.9,2.1-2c2.2-0.3,1.8,2,2.3,3.1
		C160.5,112.9,158.8,113,157,113.4z"/>
	<path class="st16" d="M129,146.6c-0.1,1.1-0.1,2.4-1.5,2c-1.4-0.3-3.7,0.2-3.5-2.5c0.1-1.1,0.3-2.1,1.7-1.5
		C126.9,145.2,129.1,144.1,129,146.6z"/>
	<path class="st17" d="M200,43c1.1-0.7-0.1-1.5,0.1-2.3c3.2,1.2,4.8,4.1,6.8,6.5C204.3,46,201.7,45.2,200,43z"/>
	<path class="st18" d="M162.1,217.2c0.7,0.3,1.4,0.6,2.1,0.9c-1.8,1.3-4,1.8-6.2,2c-0.2-0.2-0.3-0.5-0.2-0.7
		c0.1-0.2,0.2-0.3,0.3-0.3C159.4,218.4,160.7,217.8,162.1,217.2z"/>
	<path class="st19" d="M180,54.2c-0.8,1-2.7,0.2-3.1,1.9c-0.9-0.3-1.9-0.5-2.2-1.8C176.6,53.7,178.3,53.8,180,54.2z"/>
	<path class="st20" d="M168.2,190.2c-0.4-0.4-0.8-0.9-1.2-1.3c0.8-0.8,1.5-1.6,2.7-1.1C169.3,188.6,168.7,189.4,168.2,190.2z"/>
	<path class="st21" d="M158,219c0,0.4,0,0.7-0.1,1.1c-0.7,0.9-1.8,1.4-2.2,0.2C155.6,219.4,157,219,158,219z"/>
</g>
</svg>
