<?xml version="1.0" encoding="utf-8"?>
<!-- Generator: Adobe Illustrator 19.0.0, SVG Export Plug-In . SVG Version: 6.00 Build 0)  -->
<svg version="1.1" id="Layer_1" xmlns="http://www.w3.org/2000/svg" xmlns:xlink="http://www.w3.org/1999/xlink" x="0px" y="0px"
	 viewBox="0 0 269 234" style="enable-background:new 0 0 269 234;" xml:space="preserve">
<style type="text/css">
	.st0{fill:#C6C6C6;}
	.st1{fill:#C7C8C8;}
	.st2{fill:#C7C7C8;}
	.st3{fill:#C8C9CA;}
	.st4{fill:#C7C8C9;}
	.st5{fill:#C7C8CA;}
	.st6{fill:#C9CACB;}
	.st7{fill:#C8C9CB;}
	.st8{fill:#CCD5E4;}
	.st9{fill:#CACCCE;}
	.st10{fill:#C7C8CB;}
	.st11{fill:#CED2D8;}
	.st12{fill:#CCD1D8;}
	.st13{fill:#CCD1D7;}
	.st14{fill:#C4CEDF;}
	.st15{fill:#C1CCDD;}
	.st16{fill:#E0E7F2;}
</style>
<g>
	<path class="st0" d="M163,217c5.1-3.9,10.6-7.5,15.3-11.8c16.4-15,24.9-34.4,29.8-55.7c4.3-18.9,3.2-37.5-3.2-55.7
		c-5.4-15.4-14.4-28.3-28.2-37.5c-0.7-0.4-1.3-0.9-3.1-2.1c15.8-0.6,29.6,1.8,41.5,10.6c12.7,9.3,17.9,22.9,20,38
		c3.1,23.2,0.3,45.4-11.1,66c-12.9,23.2-31.8,39.7-57,48.7c-0.9,0.3-1.9,0.4-2.9,0.6C163.4,217.9,163.1,217.6,163,217z"/>
	<path class="st0" d="M200,43.1c-7.3-3.2-14.6-6.3-22.4-8c-17.2-3.8-34.2-2.3-51.1,2.2C109,42,93.5,50.4,80.6,63
		C66,77.2,56.8,94.3,55.8,115.4c-14.7-22.1-16.4-44-2.4-62.8C64.4,38,79.3,28.4,96.3,22.1c10.1-3.8,20.6-5.6,31.5-6.3
		c23-1.4,43.9,4.6,63,17.2c2.6,1.7,5.5,3.2,7.3,5.9C199.2,40.1,200.9,41,200,43.1z"/>
	<path class="st0" d="M45.1,142c4.6,5.2,8,11.3,12.6,16.5c16.1,18.4,35.5,31.3,59.7,36.1c16.6,3.3,33,2.3,48.5-5.5
		c1.1-0.6,2.1-1.6,3.6-1.3c-11,22.9-30.3,38.1-56.8,33.4c-40.8-7.3-74.4-41.4-81.8-82.4c-2.2-12.3-3-24.5,0-36.8
		c1.3-1.4-0.1-3.6,1.9-5.1C32.9,113.1,36.5,128.2,45.1,142z"/>
	<path class="st1" d="M100.4,82.6c-2.2-1.9-5.1-3.7-6.7-6.2c-0.8-1.4,1.5-3.5,3.1-4.6c3.6-2.6,7.1-5.4,11.2-7.4
		c2.4-1.2,3.6-1,4.1,1.8c0.3,1.4,0.9,2.8,1.5,4.2c1,2.4,0.7,4-2.3,4.6c-3.6,0.7-5.6,4-8.4,6C102.2,81.5,101.9,82.7,100.4,82.6z"/>
	<path class="st2" d="M115,167.6c0,6.8-1.6,8-7.5,6c-4.1-1.4-7.9-3.4-11.7-5.5c-2.5-1.4-2.4-2.8-0.7-4.6c1.3-1.3,2.6-2.6,3.9-3.9
		c1.4-1.5,2.5-1.7,4.1-0.2c2.5,2.3,5.5,3.8,8.8,4.5C114.4,164.5,115.2,165.7,115,167.6z"/>
	<path class="st2" d="M192,123.7c-0.7,1.7,1.7,5.2-2.8,5.3c-6.2,0.1-8.2-1.3-8.1-6c0-3-0.1-5.9-1-8.8c-1.8-5.8,3.5-4.7,6.1-6
		c3.1-1.6,3.4,1.1,3.9,3.1C191.1,115.3,192.1,119.3,192,123.7z"/>
	<path class="st3" d="M184.7,103.3c-1,2.4-4,2.5-6.1,3.9c-2.2,1.4-2.3-0.5-3-1.7c-1-1.7-2.2-3.3-3.5-4.8c-3.1-3.4-2.3-7.1,1.9-8.9
		c0.4-0.2,0.9-0.4,1.4-0.3C177.1,91.6,184.7,101,184.7,103.3z"/>
	<path class="st4" d="M98.9,87.1c-2.7,3.3-3.3,7.6-5.5,10.7c-1.1,1.6-4.4-0.8-6.7-1.5c-1.8-0.6-1.4-1.7-0.9-3.2c1-3.4,2-6.7,4.2-9.5
		c0.7-0.9,1-3.4,3.2-1.8C95.3,83.4,97.9,84.4,98.9,87.1z"/>
	<path class="st4" d="M123.6,174c-1.8-0.4-4.6,1.1-5.2-1.2c-0.6-2.2,0.4-4.8,0.8-7.2c0.1-0.8,0.8-0.8,1.5-0.7
		c3.2,0.9,6.3-0.2,9.3-0.9c3.5-0.9,3.6,1.6,3.8,3.4c0.2,1.9,2,4.8-1.8,5.5C129.2,173.3,126.5,174.5,123.6,174z"/>
	<path class="st5" d="M94,111.3c0.3,2.1,1.3,4.7-3.6,4.8c-7.1,0.1-4-5.6-5.2-8.6c-0.7-1.8,0.1-4.4,3.2-4.4
		C92.6,103.1,93.8,104.7,94,111.3z"/>
	<path class="st6" d="M150.7,159.5c0.1,2-6.7,8-9.1,8c-3.5,0.1-3-3.2-3.3-5.1c-0.6-3.8,3.5-4.2,5.6-5.9c0.9-0.8,1.8-3.1,3.5-1.5
		C148.8,156.4,149.7,158.2,150.7,159.5z"/>
	<path class="st7" d="M168.5,88.8c-1.7,1.4-2.4,4.2-4.9,4.8c-1.9,0.5-9.7-4.2-9.3-5.3c0.8-2.1,0.8-5.1,3.8-5.6
		C160.3,82.3,168.5,87.1,168.5,88.8z"/>
	<path class="st8" d="M45.1,142c-5-5.3-6.9-12.2-9-18.9c-1.3-4.1-2.4-8.3-2.9-12.5c-0.5-4.1-0.1-8.2-0.1-12.9
		c-1.8,1.3-0.4,3.6-2.2,4.3c-0.2-4.5,1.2-8.7,3.1-12.9c0,2.1,0.1,4.1,0,6.2c-0.9,15.3,2.5,29.5,9.7,43
		C44.3,139.4,44.6,140.7,45.1,142z"/>
	<path class="st9" d="M97,132.6c-3.6-1.2-4.4-4.5-5.1-7.3c-0.7-3,2.8-3,4-2.9c3.9,0.3,3.7,4.5,4.8,7
		C101.5,131.2,98.3,131.4,97,132.6z"/>
	<path class="st7" d="M141.8,88.5c-2.7,1-4,0.2-3.9-3.2c0.2-5.1,3.8-2.9,6.2-3.2c1.9-0.3,3.9,0.1,3.7,2.7
		C147.4,88.2,145.7,89.9,141.8,88.5z"/>
	<path class="st3" d="M160.9,144.8c-1.3,2.8-2.4,6.3-5.3,7.3c-1.6,0.6-4.4-2.4-4.1-4c0.5-2.5,2.1-5.4,5.1-5.9
		C158,142.1,160.3,142.5,160.9,144.8z"/>
	<path class="st0" d="M108.1,137.1c1.4,1.5,4.3,1.6,4.7,4.3c0.2,1.5-1,3.2-2.5,2.9c-2.3-0.4-4.3-1.9-4.8-4.3
		C105.1,138.7,106.6,137.8,108.1,137.1z"/>
	<path class="st0" d="M123.6,93.6c-2,0-2.7-1.3-2.8-2.5c-0.2-3.3,2.8-3.2,4.8-3.7c1.9-0.5,2.5,1.4,2.5,2.8
		C128.1,93.4,124.2,91.5,123.6,93.6z"/>
	<path class="st10" d="M164,128.7c-0.1,2.3-1.2,3.4-3.5,3.3c-1.7-0.1-2.6-0.6-1.7-2.4c0.8-1.7-0.6-4.8,3.1-4.5
		C164.5,125.3,163.8,127.2,164,128.7z"/>
	<path class="st11" d="M200,43.1c-0.7-1.4-1.3-2.8-2-4.2c4.5,1.8,6.7,5.8,9.6,9.2C205.3,46.1,201.9,45.7,200,43.1z"/>
	<path class="st12" d="M111,106c-1.5-1-2.9-1.6-2.4-3.2c0.4-1.4,1.2-2.8,3-2.7c1.2,0.1,2.4,0.9,2,2.2
		C113.1,103.7,111.9,104.8,111,106z"/>
	<path class="st0" d="M159.8,110.8c0.3,1.9-1.1,2.5-2.3,2.7c-1.9,0.3-1.5-1.8-2-2.8c-0.7-1.3,0.3-2.2,1.5-2.5
		C159.1,107.9,159.1,109.8,159.8,110.8z"/>
	<path class="st13" d="M163,217c0.4,0.4,0.7,0.7,1.1,1.1c-1.4,1.2-3.2,1.6-5,1.9c-0.4-0.2-0.5-0.4-0.4-0.6c0.1-0.2,0.2-0.4,0.3-0.4
		C160,217.7,161.4,217.1,163,217z"/>
	<path class="st14" d="M127,148.9c-1.5-0.3-3.5,0-3.1-2.5c0.2-1.1,0.1-3.1,2.2-1.4c0.1,1.1,1,1.8,1.2,2.8
		C127.4,148.2,127.3,148.5,127,148.9z"/>
	<path class="st0" d="M127,148c-1.1-0.8-2.8-1.4-0.9-3.1c0.3,0.1,0.6,0.1,1,0.2C128.2,146.1,129.8,147.1,127,148z"/>
	<path class="st15" d="M127,148c1.6-0.9,0.4-1.9,0-2.9c1.5-0.1,2,0.8,1.9,2.2c-0.1,1.2-0.8,1.7-1.9,1.6C127,148.6,127,148.3,127,148
		z"/>
	<path class="st16" d="M159,219c0,0.3,0.1,0.6,0.1,1c-1.1,0.4-2.1,1.6-3.4,0.5C156.3,218.8,157.7,219.1,159,219z"/>
</g>
</svg>
