<?xml version="1.0" standalone="no"?>
<!DOCTYPE svg PUBLIC "-//W3C//DTD SVG 20010904//EN"
 "http://www.w3.org/TR/2001/REC-SVG-20010904/DTD/svg10.dtd">
<svg version="1.0" xmlns="http://www.w3.org/2000/svg"
 width="269.000000pt" height="234.000000pt" viewBox="0 0 269.000000 234.000000"
 preserveAspectRatio="xMidYMid meet">
<metadata>
Created by potrace 1.15, written by Peter Selinger 2001-2017
</metadata>
<g transform="translate(0.000000,234.000000) scale(0.100000,-0.100000)"
fill="#000000" stroke="none">
<path d="M302 1335 c-59 -332 48 -672 287 -913 250 -251 604 -356 826 -245 96
49 202 158 257 267 l20 40 -23 -16 c-45 -29 -168 -67 -250 -78 -197 -24 -454
46 -633 174 -270 192 -442 469 -464 742 l-7 99 -13 -70z"/>
<path d="M2061 1365 c0 -5 6 -37 14 -70 40 -161 27 -366 -36 -562 -85 -265
-252 -471 -461 -568 -68 -32 -47 -32 48 0 424 142 702 507 720 945 3 69 1 152
-4 185 l-10 60 -1 -47 -1 -48 -120 0 c-107 0 -120 2 -121 18 -1 20 -27 102
-28 87z"/>
<path d="M1818 1254 c-33 -14 -36 -18 -27 -40 5 -14 9 -49 9 -79 l0 -53 50
-11 c28 -6 54 -11 57 -11 8 0 -5 125 -18 173 -11 41 -17 43 -71 21z"/>
<path d="M960 731 c-16 -22 -30 -42 -30 -45 0 -9 137 -72 171 -80 25 -5 27 -3
34 40 7 48 -2 64 -36 64 -8 0 -36 13 -62 29 l-46 30 -31 -38z"/>
</g>
</svg>
