<?xml version="1.0" encoding="utf-8"?>
<!-- Generator: Adobe Illustrator 19.0.0, SVG Export Plug-In . SVG Version: 6.00 Build 0)  -->
<svg version="1.1" id="Layer_1" xmlns="http://www.w3.org/2000/svg" xmlns:xlink="http://www.w3.org/1999/xlink" x="0px" y="0px"
	 viewBox="0 0 612 792" style="enable-background:new 0 0 612 792;" xml:space="preserve">
<style type="text/css">
	.st0{fill:#23BEEF;}
	.st1{fill:#23BBEE;}
	.st2{fill:#1D58A6;}
	.st3{fill:#22C0F1;}
	.st4{fill:#26BCEE;}
	.st5{fill:#1B50A0;}
	.st6{fill:#1C54A4;}
	.st7{fill:#21479A;}
	.st8{fill:#13ACE4;}
	.st9{fill:#14ACE4;}
	.st10{fill:#1D4C9E;}
	.st11{fill:#22B9EC;}
	.st12{fill:#18B1E7;}
	.st13{fill:#1DB4E9;}
	.st14{fill:#1BB1E7;}
	.st15{fill:#14A7E0;}
	.st16{fill:#20B7EB;}
	.st17{fill:#1F5CA9;}
	.st18{fill:#13A4DD;}
	.st19{fill:#215FAC;}
	.st20{fill:#17A0DA;}
	.st21{fill:#1C95D3;}
	.st22{fill:#1870B8;}
	.st23{fill:#179CD8;}
	.st24{fill:#1D88C9;}
	.st25{fill:#2166B1;}
	.st26{fill:#13A7E0;}
	.st27{fill:#2162AE;}
	.st28{fill:#1570B8;}
	.st29{fill:#17ACE3;}
	.st30{fill:#0D75BC;}
	.st31{fill:#189AD6;}
	.st32{fill:#1E84C6;}
	.st33{fill:#1470B8;}
	.st34{fill:#1E8DCD;}
	.st35{fill:#12A9E1;}
	.st36{fill:#0E75BC;}
	.st37{fill:#177EC2;}
	.st38{fill:#17A4DE;}
	.st39{fill:#1D6AB4;}
	.st40{fill:#127ABF;}
	.st41{fill:#1F9CD8;}
	.st42{fill:#1E92D1;}
	.st43{fill:#1AA4DD;}
	.st44{fill:#1379BF;}
	.st45{fill:#2066B1;}
	.st46{fill:#1474BB;}
	.st47{fill:#186FB8;}
	.st48{fill:#187EC2;}
	.st49{fill:#1CA0DB;}
	.st50{fill:#2092D0;}
	.st51{fill:#1A6DB5;}
	.st52{fill:#218FCE;}
	.st53{fill:#1E6AB4;}
	.st54{fill:#205CA9;}
	.st55{fill:#2088C9;}
	.st56{fill:#1E59A6;}
	.st57{fill:#1EA9E1;}
	.st58{fill:#1DA1DB;}
	.st59{fill:#2898D4;}
	.st60{fill:#2162AF;}
	.st61{fill:#225FAC;}
	.st62{fill:#1980C4;}
	.st63{fill:#1473BA;}
	.st64{fill:#1B9DD8;}
	.st65{fill:#1CA5DE;}
	.st66{fill:#167CC0;}
	.st67{fill:#1272BA;}
	.st68{fill:#1B6DB5;}
	.st69{fill:#20A6DE;}
	.st70{fill:#1C51A1;}
	.st71{fill:#284B9A;}
	.st72{fill:#1F8DCD;}
	.st73{fill:#2295D2;}
	.st74{fill:#1B54A4;}
	.st75{fill:#1E91D0;}
	.st76{fill:#249AD6;}
	.st77{fill:#217FC2;}
	.st78{fill:#225CA9;}
	.st79{fill:#1C80C4;}
	.st80{fill:#1F9FDA;}
	.st81{fill:#2BA3DC;}
	.st82{fill:#2A83C5;}
	.st83{fill:#268ACA;}
	.st84{fill:#32BAEC;}
	.st85{fill:#277BBE;}
	.st86{fill:#349FD8;}
	.st87{fill:#218CCB;}
	.st88{fill:#2B97D3;}
	.st89{fill:#6CBDE5;}
	.st90{fill:#167EC2;}
	.st91{fill:#1A73BA;}
	.st92{fill:#1C9AD6;}
	.st93{fill:#138ACB;}
	.st94{fill:#2483C5;}
	.st95{fill:#1165B1;}
	.st96{fill:#266FB6;}
	.st97{fill:#2492D0;}
	.st98{fill:#264F9E;}
	.st99{fill:#216FB6;}
	.st100{fill:#168CCC;}
	.st101{fill:#2B3082;}
	.st102{fill:#2B2F82;}
	.st103{fill:#1465B1;}
	.st104{fill:#319DD7;}
	.st105{fill:#187DC2;}
	.st106{fill:#107FC3;}
	.st107{fill:#293789;}
	.st108{fill:#1B469B;}
	.st109{fill:#1288C9;}
	.st110{fill:#154A9D;}
	.st111{fill:#1186C8;}
	.st112{fill:#1580C4;}
	.st113{fill:#1377BD;}
	.st114{fill:#1185C8;}
	.st115{fill:#1F90CF;}
</style>
<g id="XMLID_4_">
	<g id="XMLID_388_">
		<path id="XMLID_512_" class="st0" d="M372.8,187.1c7.9,1.8,15.3,4.8,21.9,9.4c3.9,3,3.3,5.5-1,7.3c-3.2,1.3-6.6,1.2-10,1.1
			c-50.7-0.7-101.4,0.2-152.1-0.2c-4.7,0-9.9,1.2-13.7-3.2c-0.5-1.2-0.4-2.4,0.3-3.5c7.8-5.3,16.6-8.7,25.7-11.1
			c4.5,1.3,9.1,1.2,13.6,1.2c35.4,0,70.8,0.2,106.3-0.1C366.9,188.1,369.9,188.2,372.8,187.1z"/>
		<path id="XMLID_511_" class="st1" d="M218.3,198.2c0,0.7,0.1,1.4,0.1,2.1c-0.8,6.6,4.4,4.5,7.3,4.5c27.4,0.2,54.8,0.1,82.2,0.1
			c3,0,6.1-0.3,9.1,0.3c2.5,0.5,5.8,0.2,6.1,4.1c-17.4,3.9-34.7,8.3-51.5,14.5c-22.7,2.6-45.4,1-68.2,1.4c-3.3,0.1-6.7,0.2-9.9-1
			c-4.2-1.5-6-4-2.8-8.2C198.9,208.7,208,202.6,218.3,198.2z"/>
		<path id="XMLID_510_" class="st2" d="M190.8,516.4c-3.1-1.8-6-3.7-7.4-7.2c-1.4-7,4.4-6.3,7.9-6.4c21.8-0.4,43.7-1,65.5,0.4
			c3.7,0.2,3.4-1,3.8-3.1c9.2,2.3,18.4,4.5,27.7,6.8c3.5,2.3,7.2,1.4,10.8,0.6c8,0,16.1,0,24.1,0c3.1,0.7,6.1,1.5,9-0.5
			c8.4,0.2,15.3-6.4,23.9-5.2c3.4,3,8.8-0.4,11.8,3.8c-1.4,2.9-2.6,5.9-6,7.2c-3.2,4.1-7.7,4.6-12.4,4.6c-49.6,0.1-99.2,0-148.8,0.1
			C197.4,517.5,194.2,516.2,190.8,516.4z"/>
		<path id="XMLID_509_" class="st3" d="M372.8,187.1c-1.8,4.4-5.6,4-9.3,4c-36.8,0-73.6,0-110.4,0c-3.7,0-7.5,0.3-9.2-4.1
			c12.7-6.3,26.6-8.8,40.4-10.3c29-3.2,57.7-1.3,85.4,8.7C370.8,185.9,371.8,186.6,372.8,187.1z"/>
		<path id="XMLID_508_" class="st4" d="M323,209.3c-2.8-2.8-6.4-1.6-9.6-1.6c-30.9-0.1-61.8,0-92.7-0.1c-2.3,0-5.6,1.3-6.7-1.3
			c-1.3-3.2,2.1-4.5,4.3-6c2.1,2.6,5,1.8,7.7,1.8c54.2,0,108.4,0.1,162.6-0.1c3.1,0,9.4,2.3,6.1-5.5c12.5,5,23.2,12.6,33.3,21.4
			c0.7,2.2,4.4,3,3.3,5.9c-0.6,1.6-2.5,1.2-3.9,0.5c-15.8-6.8-31.9-12.7-49.1-15.2c-3.4-2-6.9-3.5-10.9-1.7c-1.3,0-2.5,0-3.8,0
			c-1.7-1.3-3.8-0.3-5.7-1c-3.1-0.9-6.2-0.9-9.3,0.1c-2.3,0.6-4.8-0.5-7,0.9c-0.7,0-1.3,0-2,0c-3.9-2.1-7.6,0.5-11.4,0.4
			c-1.1,0.4-2.2,0.7-3.2,1.4C324.3,209.3,323.7,209.3,323,209.3z"/>
		<path id="XMLID_507_" class="st5" d="M355.9,521.9c-2.2,5-7.4,7.1-10.7,11c-12.1,2-24.3,1.1-36.5,1.1c-30.8-0.1-61.5,0.7-92.3-0.5
			c-5.6-2-10.2-5.4-14.8-9.1c1.4-6.4,6.8-5.1,10.9-5.2c16.5-0.4,33-0.1,49.6-0.1c26.6,0,53.2-0.1,79.9,0.1
			C346.7,519,351.8,518.1,355.9,521.9z"/>
		<path id="XMLID_506_" class="st6" d="M355.9,521.9c-48,0-96.1,0-144.1,0.1c-3.5,0-7.5-1.4-10.2,2.3c-3.6-2.6-7.2-5.2-10.8-7.8
			c3-3.3,6.9-1.8,10.4-1.9c49.5-0.1,98.9-0.1,148.4-0.1c4.3,0,8.6,0.3,12.5-1.8C361.9,517.1,358.4,519.2,355.9,521.9z"/>
		<path id="XMLID_505_" class="st7" d="M330.4,543.7c-9.9,7.2-21.3,9.6-33.1,10.9c-6.7-1.1-13.3-0.9-20-0.1c-1.6,0.3-2.9-0.2-4-1.3
			c-3.4-2.5-7.7,0.2-11.3-1.8c-9.8-1.3-19-4.3-27.5-9.2c4.5-5.7,11.1-6.3,17.3-6.4c21.6-0.5,43.3-0.4,65,0
			C322.5,535.9,328.8,536.1,330.4,543.7z"/>
		<path id="XMLID_504_" class="st8" d="M146.9,277.6c0.8-5.9,2.7-11.4,5.5-16.5c14.5,1.2,29.1,0.6,43.6,0.9
			c4.4,0.1,9.3-0.4,11.9,4.8c-5.6,6.8-11.2,13.5-16.9,20.3c-11.8,1.3-23.7,0.3-35.5,0.4C148.7,287.5,146.8,283.4,146.9,277.6z"/>
		<path id="XMLID_503_" class="st9" d="M423.9,285.2c-5-6.2-10-12.3-15-18.5c2.5-5.2,7.5-4.5,12-4.8c9.7-0.7,19.6,1.1,29.2-1.5
			c8.8,4.3,16.6,9.9,22.1,18.2c1.9,5.3-1.4,8-5.6,8.2C452.3,287.5,438,289.6,423.9,285.2z"/>
		<path id="XMLID_502_" class="st10" d="M330.4,543.7c-4.3-4.6-9.6-5.5-15.7-5.4c-15.2,0.3-30.4,0.3-45.6,0
			c-11.7-0.2-23.3,0-34.5,3.9c-6.5-2.1-12.6-5-18.2-8.9c1.8-2.9,4.8-2.3,7.4-2.3c38.2,0,76.4,0,114.6,0c2.4,0,5-0.5,6.8,1.8
			C340.8,537.3,336.4,541.5,330.4,543.7z"/>
		<path id="XMLID_501_" class="st11" d="M190.6,216c-2.1,7.4,3.3,6.3,7.4,6.3c21.3,0.1,42.6,0,63.9,0.1c3.2,0,6.7-1.1,9.6,1.4
			c-7.3,3.6-14.7,7.3-22,10.9c-20.6-0.8-41.3-0.1-61.9-0.4c-4.7-0.1-10,1-12.9-4.4C179.5,224.8,184,219.2,190.6,216z"/>
		<path id="XMLID_500_" class="st12" d="M207.9,266.7c-14.2-4.4-28.8-1.1-43.2-2c-4.4-0.3-9.2,1.1-12.3-3.6
			c1.6-4.8,3.6-9.3,7.2-12.9c16.7,1.4,33.5,0.5,50.3,1c4.3,0.1,9.6-0.4,10.3,6.2C216.1,259.1,212,262.9,207.9,266.7z"/>
		<path id="XMLID_499_" class="st13" d="M220.2,255.4c-2-4.3-5.9-3.6-9.5-3.6c-13.1,0-26.2-0.2-39.3,0.1c-4.5,0.1-8.3-1-11.8-3.7
			c1.9-4.7,5.1-8.4,9-11.6c18.8,2.8,37.7,0.6,56.6,1.5c4.2,0.2,9.4-1.4,11.5,4.4C231.2,246.7,225.7,251,220.2,255.4z"/>
		<path id="XMLID_498_" class="st14" d="M450.1,260.4c-0.8,5.6-5.2,3.9-8.6,4.2c-10.8,1-22-2.2-32.6,2.1
			c-7.9-6.4-15.9-12.9-25.4-20.5C407.8,246.4,430,248.2,450.1,260.4z"/>
		<path id="XMLID_497_" class="st15" d="M146.9,277.6c1.6,5.5,4.7,8,11,7.4c8.2-0.8,16.4-0.2,24.7-0.1c2.9,0,6.2-0.9,8.4,2.2
			c-3.1,4.9-6.1,9.8-9.2,14.7c-12.8,4.3-27.9,3.2-34.3-2.6c1.3,3,1.7,5.9-1.1,8.3C143.5,297.5,144.3,287.5,146.9,277.6z"/>
		<path id="XMLID_496_" class="st16" d="M236.6,242.4c-2.8-2.8-6.3-1.6-9.5-1.6c-16.7-0.1-33.4,0-50.1-0.1c-3.4,0-7.7,1.4-8.5-4.2
			c1.6-2.6,3-5.4,6-6.7c3.3,2.1,7,1.7,10.6,1.7c18.2,0,36.4,0,54.5,0c3.6,0,7.4-0.8,9.8,3.1C245.2,237.3,240.9,239.8,236.6,242.4z"
			/>
		<path id="XMLID_495_" class="st17" d="M260.6,500.1c0,2.4,1.9,3.4,3.4,5.2c-24,0-48-0.1-71.9,0.1c-3.3,0-7.8-1.8-8.8,3.8
			c-3.2-3.5-8.9-4.2-10.6-9.5c2.5-5.3,7.6-4.4,11.9-4.4c15.5-0.3,30.9,0.1,46.4-0.2c3.3-0.1,6.7,0.3,9.3-2.5
			C247.2,495.1,253.9,497.6,260.6,500.1z"/>
		<path id="XMLID_494_" class="st18" d="M438.1,312.6c-1.6-3.7-3.2-7.4-4.8-11.1c0.9-4.8,4.7-2.7,7.2-2.7c14.8-0.1,29.5,0.4,44.3-1
			c2.8,4.5,4.8,9.4,5.6,14.7c-1.8,4-5.5,4.4-9.2,4.5c-10.9,0.4-21.7,0.2-32.6,0.1C444.5,316.9,441,315.6,438.1,312.6z"/>
		<path id="XMLID_493_" class="st19" d="M240.4,492.6c-0.6,5.6-4.7,5.4-8.8,5.4c-16.1,0-32.2,0-48.3,0c-3.6,0-7.3-0.5-10.6,1.8
			c-2.1-2.1-4.2-4.3-6.3-6.4c-0.1-6.5,4.8-7.1,9.3-7.2c16.7-0.2,33.4-1.1,50,0.5C232,485.3,234.9,492.2,240.4,492.6z"/>
		<path id="XMLID_492_" class="st20" d="M438.1,312.6c17.4,2.6,34.8,3,52.2-0.2c2.4,3.3,2.8,7.2,3.4,11c-3.4,4.5-8.4,4.4-13.2,4.5
			c-12.1,0.4-24.3-1.1-36.4,1.5C442.1,323.8,440.1,318.2,438.1,312.6z"/>
		<path id="XMLID_491_" class="st21" d="M495.5,330.9c0.6,5.5,1.2,11,1.8,16.5c-1.9,3.3,1.3,7.9-2.9,10.6
			c-14.9,1.4-29.9,3.9-44.6-1.5c-1.8-3.9-1.9-8.2-2.1-12.4c-0.5-4,2.3-2.6,4-2.3c10.2,1.9,20.4,0.7,30.6,0.9
			c4.5,0.1,8.6-0.6,9.2-6.3C492.2,334.2,492,331.2,495.5,330.9z"/>
		<path id="XMLID_490_" class="st22" d="M255.6,442.6c3.5,3,7.9,4.4,12.1,5.2c7.2,1.4,9,5.1,6.7,11.6c-2.9,6.5-7.7,8-14.1,5.6
			l-0.8,0l-0.7-0.4c-3.5-2.3-7.2-4-11.3-5.2c-0.6-0.1-1.2-0.2-1.7-0.4c-12.6-7.5-13-4-1.9-16.4C247.7,442.9,251.7,442.4,255.6,442.6
			z"/>
		<path id="XMLID_489_" class="st23" d="M495.5,330.9c-1.9,1.4-1.4,3.5-1.5,5.4c-2.1,1.9-4.8,2.7-7.5,2.6
			c-13.5-0.7-27.2,2.5-40.4-2.3c-2-2-1.8-4.6-2-7c0.9-5.5,5.2-4,8.6-4.2c13.7-0.8,27.5,1.8,41-1.8
			C494.3,325.9,494.9,328.4,495.5,330.9z"/>
		<path id="XMLID_488_" class="st24" d="M497.4,382.2c0.3,2.7,0.7,5.4-1.3,7.7c-2.4,1.9-0.3,6.9-5,7.2c-8.2,1.5-16.4,0.8-24.5,0.8
			c-14.3,0-15.1-1.1-13.1-16.1C468.1,377.9,482.8,377.4,497.4,382.2z"/>
		<path id="XMLID_487_" class="st25" d="M158.1,483.2c-2-2.9-5.7-4.5-6.3-8.5c0.8-6.4,6.1-5,9.8-5.2c13.3-0.5,26.7-0.3,40,0.3
			c3.9,3,9.2,4.2,11.4,9.3c0,4.4-3.6,4.7-6.4,4.7C190.4,484.1,174.3,485.4,158.1,483.2z"/>
		<path id="XMLID_486_" class="st26" d="M484.7,297.7c-2.4,3.3-5.8,3.8-9.7,3.7c-13.9-0.2-27.8,0-41.8,0c-2-2-3.1-4.5-3.7-7.3
			c0.8-5.3,5.2-4.3,8.5-4.6c7.3-0.5,14.6-0.3,22-0.1c6.2,0.2,12.1-0.7,17.7-3.4C481.3,289.2,483.1,293.4,484.7,297.7z"/>
		<path id="XMLID_485_" class="st27" d="M158.1,483.2c13.3-3.9,26.9-0.6,40.3-1.9c4.9-0.4,10.3,2.2,14.6-2.2
			c5.2,0.8,9.7,2.9,12.8,7.5c-2.5,3.3-6.2,2-9.3,2c-13.4,0.1-26.8,0.1-40.2,0c-4,0-8.1-0.2-9.8,4.6
			C163.2,490.4,159.7,487.6,158.1,483.2z"/>
		<path id="XMLID_484_" class="st28" d="M174.5,446.1c3.6,3.2,7.2,6.4,10.8,9.6c1.9,6-3,6-6.1,6.1c-12,0.3-24,1.4-36-0.6
			c-3.3-3.7-5.2-8.3-7-12.8c4.6-4.1,10.3-2.5,15.6-2.6C159.4,445.5,166.9,445.3,174.5,446.1z"/>
		<path id="XMLID_483_" class="st29" d="M240.4,281.1c6.3-6.8,14.2-11.3,22.1-16c4.3-2.5,6.7-2,7.6,3.1c0.2,1.2,0.7,2.3,1.3,3.4
			c4.3,8.2,2.6,13.5-7.1,14.9c-5.4,0.4-10.8,1.3-16.2,0.6C244.3,286.7,240.7,286,240.4,281.1z"/>
		<path id="XMLID_482_" class="st30" d="M485.2,434.3c-0.5,3.1-1.1,6.3-3.3,8.8c-10.9,4.4-22.1,2.3-33.2,2c-4.5-0.1-5.9-3.6-5.9-7.7
			c0.6-2.4,1.3-4.9,1.9-7.3c11.8-2.2,23.6-1,35.4-0.5C482.5,429.7,485.7,430.3,485.2,434.3z"/>
		<path id="XMLID_481_" class="st31" d="M446.1,336.5c16-0.1,31.9-0.2,47.9-0.3c1,7-1.5,9.9-8.9,9.3c-12.4-0.9-24.9,1-37.3-1.5
			C446,341.9,446.1,339.2,446.1,336.5z"/>
		<path id="XMLID_480_" class="st32" d="M453.6,382.2c0,12.9,0,12.9,12.4,12.9c9.3,0,18.7,0,28,0c1.4,1.9,1,3.8,0.3,5.8l0.2-0.2
			c-1.9,3.1-3.9,6.1-8.2,6c-11-0.1-22,1.3-32.9-0.9c-3.4-1.3-1.9-4.8-3.2-7c0.5-8,0.9-16,1.4-24C456.8,376,455.2,379.1,453.6,382.2z
			"/>
		<path id="XMLID_479_" class="st33" d="M477.7,448.4c1.3,4.2-2,6.4-4,9.1c-1.6,2.9-4.3,4.1-7.5,4.3c-7.2,0.4-14.4,0.5-21.6,0
			c-3.8-0.3-7.1-1.5-7.6-6.1c1.3-4.3,2.7-8.5,4-12.8c6.6,4,14,2.4,21.1,2.8C467.4,446.1,473.1,444.3,477.7,448.4z"/>
		<path id="XMLID_478_" class="st34" d="M453.6,382.2c-0.3-2.6,0.9-5.5-2-7.4c0-1,0-2,0-3c-0.3-3-2.5-6.4,1.8-8.4
			c3.6,5.7,8.7,7.2,15.3,7c8.7-0.1,17.4-1.3,26,1c2.4,0.9,1.8,3.6,3.1,5.1c-0.1,1.8-0.1,3.7-0.2,5.5
			C482.8,382.2,468.2,382.2,453.6,382.2z"/>
		<path id="XMLID_477_" class="st35" d="M477.7,286c-0.5,5.2-3.8,6.3-8.4,6.2c-10.4-0.1-20.8-0.1-31.2,0c-2.9,0-6.2-1-8.5,1.9
			c-2.4-2.6-4.6-5.5-5.6-8.9c13.1-0.1,26.2-0.3,39.3-0.3c4.6,0,8.5-0.5,9-6.3C474.6,280.7,477.1,282.7,477.7,286z"/>
		<path id="XMLID_476_" class="st36" d="M132.2,439.2c-1.2-3.1-2.4-6.1-3.6-9.2c11.3-1.6,22.5-2.5,33.5,1.6c4.4,0.8,6.1,4.5,8.2,7.7
			c0,2-0.8,3.5-2.5,4.6C160.5,448.3,138.1,445.3,132.2,439.2z"/>
		<path id="XMLID_475_" class="st37" d="M492.7,409.9c-0.6,2.6,0,5.6-2,7.9c-5.6,4.6-12.3,3.9-18.8,3.7c-6.9-0.1-13.8,0.8-20.7-1
			c-1.6-0.6-2.6-1.8-3.1-3.4c-0.7-3.3-0.6-6.4,1.3-9.4c1-0.6,2.1-0.9,3.2-0.9c9.7,0.4,19.3,0,29,0.2
			C485.6,407.2,489.7,406.6,492.7,409.9z"/>
		<path id="XMLID_474_" class="st38" d="M146.4,307.5c0.2-2.7,0.4-5.4,0.7-8.4c11.6,4.6,23.4,0.7,34.8,2.6
			c-1.7,3.6-3.4,7.3-5.1,10.9c-4.7,3.2-10,2.2-15.1,2.4c-3.7,0.1-7.4-0.1-10.7,1.9c-0.8,0.6-1.6,1.1-2.6,1.4
			C146.1,314.9,146.7,311.1,146.4,307.5z"/>
		<path id="XMLID_473_" class="st39" d="M201.7,469.9c-1.9,3.5-5.3,2.3-8.1,2.3c-10.9,0.1-21.8,0-32.6,0.1c-3.2,0-6.8-1.1-9.1,2.4
			c-3-2.7-5-6.2-6.6-9.8c7.4-3.5,15.4-2.7,23.2-2.6c8.8,0.1,17.6-1.1,26.3,0.6C197,465.3,198.5,468.5,201.7,469.9z"/>
		<path id="XMLID_472_" class="st40" d="M162.1,431.6c-11.2-0.1-22.5,1.8-33.5-1.6c-0.8-2.9-1.6-5.7-2.3-8.6
			c-1.4-3.9,0.2-5.1,3.9-4.2c7.6,1.9,15,0.8,22.4-0.7C155.8,421.5,161,425.2,162.1,431.6z"/>
		<path id="XMLID_471_" class="st41" d="M393.1,321c1.6,1.8,3.2,3.5,4.7,5.3c8.1,9.7,7,13.3-4.9,17.2c-1.1,0.4-2.3,0.9-3.4,0.8
			c-1.4-0.1-13.4-19.4-13.3-21C381.7,321.8,387.7,323.7,393.1,321z"/>
		<path id="XMLID_470_" class="st42" d="M453.6,363.8c-2.8,2.1-1.4,5.3-2.1,8c-2.4-4.9-1.4-10.2-1.7-15.4c15.3,0,30.7,0,46,0
			c1.2,2.8,1.7,5.6-0.5,8.2C481.4,367.5,467.4,368.8,453.6,363.8z"/>
		<path id="XMLID_469_" class="st43" d="M373.9,309.8c-3,3.1-5.5,10.2-9.5,9.1c-5.9-1.7-14-2.6-16.8-8.8c-1.1-2.5,0.7-9.9,6.6-11.2
			C358.2,298,373.6,306.7,373.9,309.8z"/>
		<path id="XMLID_468_" class="st44" d="M448.2,417.2c0.6,0.6,1.1,1.2,1.7,1.8c2.4,3.1,5.8,2.8,9.1,2.8c7.9,0.1,15.7-0.1,23.6,0.1
			c2.1,0.1,5.8-1.8,6,2.8c-0.2,3.5-1.4,6.7-3.4,9.6c-2.9-4-7.2-2.1-10.9-2.4c-9.8-1-19.9,1.9-29.6-1.8
			C445.3,425.6,445.7,421.1,448.2,417.2z"/>
		<path id="XMLID_467_" class="st45" d="M425.3,481.2c2.2-4.8,4.5-9.5,6.7-14.3c6.8,2.9,13.9,2.8,21.1,2.8c4.4,0,9.1-1,12.8,2.5
			c-2.2,3.1-4.4,6.2-6.6,9.3C448,485.4,436.6,486.6,425.3,481.2z"/>
		<path id="XMLID_466_" class="st46" d="M333.4,430.4c0.9,0.8,1.6,1.1,1.8,1.6c1.3,3.9,7.7,6.5,5.5,10.6c-3,5.6-9,9.1-15.1,11.3
			c-3.1,1.1-5.1-0.5-6.2-3.6c-1.4-3.9-2.8-7.6,1.3-10.6C324.7,436.5,329,433.6,333.4,430.4z"/>
		<path id="XMLID_465_" class="st47" d="M282.9,454c-0.1-1.6-0.9-3.4,1.6-3.8c4.9,1.4,9.8,2.2,14.5-0.4c3.5-0.8,8.1-6,9.6,1.8
			c1.2,6.1,5.2,14.6-7.3,13.6c-1.8-0.2-3.6-0.2-5.4-0.2C284.4,464.8,284.4,464.8,282.9,454z"/>
		<path id="XMLID_464_" class="st48" d="M152.5,416.5c-6.7,8.1-15.4,4.1-23.1,3c-2.9-0.4-2.7,0.2-3.1,1.9c-2.7-4.5-3.9-9.4-3.8-14.6
			c-0.8-1.7,0-2.5,1.6-3c6.9,6.1,14.7,2.9,22.3,2.4C148.4,409.6,150.5,413.1,152.5,416.5z"/>
		<path id="XMLID_463_" class="st49" d="M148.7,316.2c0.3-4.6,3.8-3.8,6.7-3.8c7.1,0,14.3,0.1,21.4,0.2c-0.9,3.8-1.9,7.7-4.2,11
			C161.8,331.8,152.8,329,148.7,316.2z"/>
		<path id="XMLID_462_" class="st50" d="M126.3,343.7c-0.5,7.6,3.2,14.6,3.6,22.1c-2.4,4.5-6.1,4.3-10.1,2.8
			c-2.4-1.6-0.9-4.5-2.2-6.5c-1.3-6.9,1.2-13.5,1.7-20.2c3-2.1,0.4-5.3,1.5-7.7c0.4-4.4-1.1-9.4,3.8-12.5
			C127.1,328.8,124.1,336.4,126.3,343.7z"/>
		<path id="XMLID_461_" class="st51" d="M194.7,463c-5.1,3-10.7,1.8-16.1,1.9c-11.1,0.2-22.2,0.1-33.4,0.1c-0.7-1.2-1.4-2.5-2.1-3.7
			c10.9-3.8,22.2-0.8,33.3-1.9c3.2-0.3,7.7,1.9,8.8-3.7C189.4,456.8,191.8,460.1,194.7,463z"/>
		<path id="XMLID_460_" class="st52" d="M402.2,381.9c-2,0.1-4,0.4-5.2-1.7c0.8-3,1-5.9-0.1-8.9c0-1.9,0-3.7,0-5.6
			c7.5-0.1,14.1-1.6,16.6-9.9c2.5,5.5,3.5,11.3,3,17.4c-2,3.3,1.5,8.2-3.3,10.6c-2.2,0.3-4.3,0.1-6-1.4c0.8-1,1.7-1.4,2.8-0.4
			c-0.5-0.6-1.2-0.8-1.9-0.8C406.1,381.4,404.1,380.8,402.2,381.9z"/>
		<path id="XMLID_459_" class="st53" d="M466,472.3c-8.4,0-16.8-0.3-25.2,0.1c-4.6,0.2-7.3-1.3-8.8-5.5c0.6-1.2,1.1-2.5,1.7-3.7
			c11.1-2,22.4-0.5,33.5-0.9c1.7-0.1,3.8,0.3,3.1,3C469.7,468.2,468,470.3,466,472.3z"/>
		<path id="XMLID_458_" class="st54" d="M446.8,496.3c-2.5,3.6-5.5,6.7-9.2,9.2c-6,3-12.3,3.3-18.8,2.3c-3.6-0.6-7.8-1.2-5.9-6.8
			c0.5-2.8,2.5-4.7,4.3-6.6C427.2,493.5,437.2,491,446.8,496.3z"/>
		<path id="XMLID_457_" class="st55" d="M120.9,399c-2.8-4.6-1.7-9.7-1.9-14.6c-1.1-2.6-1-5.1,0.2-8.6c4.8,4.4,9.5,3.1,14.2,1
			c1.9,4.9,3.7,9.8,5.6,14.7c-1.6,7.3-7.3,6.3-12.2,5.3C123.8,396.2,122.1,396,120.9,399z"/>
		<path id="XMLID_456_" class="st56" d="M412.9,501c0.4,4.1,3.4,4.3,6.6,4.3c6,0,12.1,0.1,18.1,0.2c-3.1,3.7-6.1,7.5-10.8,9.2
			c-5.2,2.2-10.5,3.3-16.1,2.1c-3.4-0.7-6.9-1.7-5.1-6.6C407.6,506.9,409.7,503.6,412.9,501z"/>
		<path id="XMLID_455_" class="st57" d="M240.4,281.1c2.8,4,6.9,3.5,11.1,3.8c4.3,0.2,8.9-1.7,12.8,1.7c-2.4,1.9-5.4,3.3-7.1,5.7
			c-6,8.4-10.7,5.8-17-0.2C235.2,287.4,235.1,284.7,240.4,281.1z"/>
		<path id="XMLID_454_" class="st58" d="M240.6,314.5c-0.4,1.4-0.8,2.9-1.3,4.3c-3.4,9.5-7.8,10.7-16.4,5.2c-2.6-1.7-2-3.1-1.3-5.2
			c1.2-4.1,2.3-8.2,4.7-11.7C230.6,310.1,237.9,307.8,240.6,314.5z"/>
		<path id="XMLID_453_" class="st59" d="M229.9,337.8c10-0.7,5.8,6.8,6.5,11.4c-0.3,4.9-1.5,9.2-7,10.6c-4.2,1-7.3,0.5-7.5-4.8
			c-0.2-4.3-1.2-8.5-1.1-12.7c0.1-2.6-0.2-6.7,4.8-5.8c1,1.7-0.5,4.4,2,5.6C229.5,341.3,224.4,336.8,229.9,337.8z"/>
		<path id="XMLID_452_" class="st60" d="M425.3,481.2c11.4,0.1,22.7,0.2,34.1,0.4c-2.5,3.1-5,6.3-7.5,9.4
			c-6.9,0.8-13.8,0.6-20.7,0.3c-4-0.2-8-0.7-8.4-6C423.6,483.9,424.5,482.5,425.3,481.2z"/>
		<path id="XMLID_451_" class="st61" d="M422.8,485.2c2.2,3.8,5.9,3.3,9.6,3.7c6.5,0.7,13.4-2.5,19.5,2c-1.7,1.8-3.4,3.6-5.1,5.4
			c-9.8-1.2-19.9,1.8-29.5-1.9C419.1,491.3,420.9,488.3,422.8,485.2z"/>
		<path id="XMLID_450_" class="st62" d="M492.7,409.9c-10.8-0.1-21.7,0-32.5-0.2c-2.9,0-6.1,1-8.5-1.8c-1.1-1.2-1-2.5,0-3.7
			c10.7,0,21.3-0.2,32,0.1c4.2,0.1,7.7-0.8,10.7-3.6C494.3,403.9,494.8,407.1,492.7,409.9z"/>
		<path id="XMLID_449_" class="st63" d="M132.2,439.2c12.7,5.1,25.4,6.5,38.1,0.1c1.4,2.3,2.8,4.5,4.1,6.8
			c-4.6,4.5-10.4,1.9-15.6,2.2c-7.6,0.5-15.2,0.1-22.7,0.1C134.9,445.3,133.5,442.3,132.2,439.2z"/>
		<path id="XMLID_448_" class="st64" d="M148.7,316.2c6.4,10,11.4,11.5,23.9,7.4c-0.3,4.6-1.7,8.9-3.6,13
			c-5.5,2.2-10.8,3.2-15.3-2.1c-2.7-5.1-4.9-10.4-5.3-16.3C148.5,317.5,148.6,316.9,148.7,316.2z"/>
		<path id="XMLID_447_" class="st65" d="M240.6,314.5c-3.7-4.6-12.8,1.1-14.5-7.5c0.2-0.6,0.2-1.4,0.6-1.7c3.3-2.5,1.5-12.1,9.8-7.3
			C247.3,304.2,247.4,304.9,240.6,314.5z"/>
		<path id="XMLID_446_" class="st66" d="M488.6,424.7c-10.5-0.1-21.1-0.2-31.6-0.2c-4,0-7.6-0.1-7.1-5.5c13.6-0.4,27.3,1,40.9-1.2
			C490.5,420.2,490.7,422.8,488.6,424.7z"/>
		<path id="XMLID_445_" class="st67" d="M477.7,448.4c-9.3,0-18.6-0.4-27.9,0.1c-4.7,0.2-7.1-1.8-8.8-5.6c0.6-1.9,1.1-3.7,1.7-5.6
			c2,4.3,5,5.8,10,5.6c9.7-0.4,19.5,0,29.2,0.1C480.5,444.9,479.1,446.7,477.7,448.4z"/>
		<path id="XMLID_444_" class="st68" d="M470.3,465.3c-9-0.1-17.9-0.3-26.9-0.4c-3.4,0-6.7,0.2-9.7-1.8c0.8-2.6,1.1-5.4,3.3-7.4
			c2.3,2.6,5,4.1,8.7,3.7c9.3-1,18.9,1.8,28-1.9C474.5,461,472.4,463.1,470.3,465.3z"/>
		<path id="XMLID_443_" class="st69" d="M325.5,309.7c-4.9,0.9-9.2,1.1-8.4-6.7c0.8-8.6,6.9-4.8,11-5.3c4.5-0.5,7.8,0.9,7.2,6.6
			C334.7,310.7,331.2,311.7,325.5,309.7z"/>
		<path id="XMLID_442_" class="st70" d="M389.1,527c2.5-2.3,4.9-4.7,7.4-7c7.5-0.7,15-2.2,22.4,0.1c-5.2,6.7-12.6,10.2-20.1,13.6
			C394.9,532.4,387.8,535.7,389.1,527z"/>
		<path id="XMLID_441_" class="st32" d="M120.9,399c0.4-3-1.5-7.4,5.2-4.3c3.8,1.7,9.6,2,12.9-3.1c1.2,2.5,2.4,4.9,3.6,7.4
			c-2.2,8.7-7.3,10.2-17.9,5.4c-0.7,0.8-1.4,1.7-2.2,2.5C120.5,404.5,120.8,401.7,120.9,399z"/>
		<path id="XMLID_440_" class="st71" d="M394.7,536.1c-10.2,4.9-20.1,10.3-31.3,12.9c-1-1.2-1-2.5-0.1-3.7c7.3-5,14.6-10,21.9-15
			C388.2,532.5,394,530.1,394.7,536.1z"/>
		<path id="XMLID_439_" class="st72" d="M133.4,376.9c-1.9,5.2-6.6,7.7-10.4,4.6c-7.3-5.9-2.6,2.3-4.1,2.9
			c-2.1-3.6-1.6-7.6-1.4-11.5c1.3-1.6-0.2-3.9,1.5-5.4c3.7,0,7.4,0.5,10.7-1.8C131,369.5,132.2,373.2,133.4,376.9z"/>
		<path id="XMLID_438_" class="st73" d="M396.5,360.4c-2-3-4.3-7.8-2.1-9.5c4.1-3.1,9.7-4.9,14.9-5.9c2.8-0.5,3.5,3.3,3.7,6
			C410.7,360.3,410.7,360.3,396.5,360.4z"/>
		<path id="XMLID_437_" class="st74" d="M418.9,520.1c-7.5,1.7-15,3.4-22.4-0.1c3-3.2,6.1-6.4,9.1-9.6c0.6,4.9,4.3,4.1,7.6,4.2
			c4.5,0.1,9.1,0.2,13.6,0.2C424.7,517.4,422.6,519.9,418.9,520.1z"/>
		<path id="XMLID_436_" class="st75" d="M396.5,360.4c0.3-2.1,1.1-3.1,3.5-2.4c6.5,1.9,10.7-0.8,13-6.9c0.2,1.6,0.3,3.2,0.5,4.8
			c-0.8,13.1-2.9,14.4-16.6,9.9C396.8,364,396.6,362.2,396.5,360.4z"/>
		<path id="XMLID_435_" class="st76" d="M153.7,334.5c4.8,3.1,10.3,0.6,15.3,2.1c-0.2,3.7,0.2,7.6-1.8,11c-2.3,0.6-2.9,4-5.8,3.4
			C157.5,346.2,155.7,340.3,153.7,334.5z"/>
		<path id="XMLID_434_" class="st77" d="M344.9,415.2c3-2.3,2-9.4,7.6-7.9c6,1.6,9.6,5.5,3.8,11.7
			C351.3,421.4,346.7,422.4,344.9,415.2z"/>
		<path id="XMLID_433_" class="st78" d="M368,505.6c-3.3-0.1-6.6-0.2-9.9-0.2c-3.1,0-2.5-1.8-1.9-3.6c4.4-4.4,10.4-5.7,15.8-8.8
			C374.7,498.7,370.7,501.9,368,505.6z"/>
		<path id="XMLID_432_" class="st79" d="M124.6,404.3c6.1-1.4,14.2,4,17.9-5.4c1.3,2.4,2.5,4.9,3.8,7.3
			C138.9,412.2,127.1,411.2,124.6,404.3z"/>
		<path id="XMLID_431_" class="st80" d="M393.1,321c-4.7,8.4-11,3.8-17,2.2C386,312.6,386,312.6,393.1,321z"/>
		<path id="XMLID_430_" class="st81" d="M295.1,307.1c4.2,0.7,5.3,4.9,4.5,6.8c-1.7,3.8-6.7,4.1-10.3,5.3c-1.9,0.6-3.9-3.5-3.7-5.5
			C286.2,308.2,291.8,309,295.1,307.1z"/>
		<path id="XMLID_429_" class="st82" d="M263.6,398.3c1.6,4.1,8.1,3.8,7.9,8.8c0,2.2-1.8,6-5,5c-3.8-1.2-8.2-3.4-8.5-8
			C257.9,401.7,260.5,399.5,263.6,398.3z"/>
		<path id="XMLID_428_" class="st83" d="M245.7,378.6c2.8,3.7,5.9,6.9-0.5,10.6c-5.8,3.3-7.3-0.5-9.2-4.1c-1.1-2.1-1.8-4.3-2.7-6.5
			c0.6-0.6,1.3-0.9,2.2-0.9C238.7,379.6,242.3,378.7,245.7,378.6z"/>
		<path id="XMLID_427_" class="st84" d="M427.4,224.4c7-1.4-0.9-4.4,0.7-6.4c7.2,4.5,13.1,10.3,17.2,18.1
			C439.3,232.1,433.3,228.3,427.4,224.4z"/>
		<path id="XMLID_426_" class="st72" d="M245.7,378.6c-3.6,5-7.2,4.5-10.8-0.1c-3-4.4,2.7-3.8,3.5-6
			C246.1,368.3,243.7,376.1,245.7,378.6z"/>
		<path id="XMLID_425_" class="st85" d="M344.9,415.2c2.9,4,7.1,4,11.4,3.9c-3.4,3.8-5.4,11.1-12.5,3.7
			C340.3,419.1,341.7,417.3,344.9,415.2z"/>
		<path id="XMLID_424_" class="st86" d="M267.9,341.2c-2.3-0.8-4.8-2.1-4.7-4c0.2-2.9,2-6,5.4-6.4c2-0.2,4.6,1.3,4.3,3.6
			C272.6,337.3,270.6,339.7,267.9,341.2z"/>
		<path id="XMLID_423_" class="st87" d="M358,376.8c9.1-1.2,8.5,3.6,5.9,9.6c-4.3,2.8-7.4,3.3-6.7-3.4
			C357.3,380.9,356.5,378.7,358,376.8z"/>
		<path id="XMLID_422_" class="st88" d="M353.6,345.5c3.6,0.6,3.6,3.8,4.3,6.2c0.9,3-2,3.8-3.8,3.9c-4.3,0.2-4.2-3.9-4.8-6.4
			C348.5,346.4,351.8,346.4,353.6,345.5z"/>
		<path id="XMLID_421_" class="st89" d="M126.3,343.7c-3.4-7.1-1.2-14.7-1.7-22c-2.5-3.9-0.5-7.3,1.7-10.9
			C126.3,321.8,126.3,332.7,126.3,343.7z"/>
		<path id="XMLID_420_" class="st90" d="M295,412.4c1.9,1.5,6.6-1,6.2,4.2c-0.2,2.3-0.7,4.4-3.6,3.6c-2.3-0.6-5.9,0.2-5.8-3.9
			C291.8,414.5,291.4,411.8,295,412.4z"/>
		<path id="XMLID_419_" class="st91" d="M255.6,442.6c-3.9,2.6-7.8,6.1-11.8,0.1C247.7,435.4,251.6,437.4,255.6,442.6z"/>
		<path id="XMLID_418_" class="st92" d="M229.9,337.8c-1.9,3.1,5.6,3,2.3,6.5c-1.6,1.7-4.1,1.7-5.9,0.7c-4.3-2.3-1.8-5.6-0.6-8.5
			C227.3,336.3,228.7,336.5,229.9,337.8z"/>
		<path id="XMLID_417_" class="st93" d="M495.8,363.8c0-2.4,0-4.9,0-7.3c0.4-3-1.1-6.4,1.5-9.1c1,9.7,0.8,19.5,0.3,29.3
			c-1.5-0.8-1.8-2.2-1.8-3.7C493.4,370,493.4,366.9,495.8,363.8z"/>
		<path id="XMLID_416_" class="st94" d="M358,376.8c0.6,4-2.8,10.5,5.9,9.6c0.1,6.4-4.4,3.3-7,3.1c-3.9-0.3-1.6-3.2-1.1-4.7
			C356.8,382.2,354.3,378.6,358,376.8z"/>
		<path id="XMLID_415_" class="st95" d="M282.9,454c1.4,7,5,10.8,12.7,9.2c2.1-0.4,4.2,0,5.7,2c0,0-0.1,0-0.1,0
			c-5,1.6-10.1,0.5-15.2,0.7c-3.7,0.1-4.9-1.7-3.6-5.2C282.6,458.4,282.7,456.2,282.9,454z"/>
		<path id="XMLID_414_" class="st96" d="M260.3,465c5.9,1.1,10.1-2,14.1-5.6C272.7,470.2,272.7,470.2,260.3,465z"/>
		<path id="XMLID_413_" class="st97" d="M161.4,351.1c2.1-0.8,2.2-5.2,5.8-3.4c0,3.6,0,7.2,0,12C163.6,357,162.5,354,161.4,351.1z"
			/>
		<path id="XMLID_412_" class="st98" d="M394.7,536.1c-1.6-4.4-7.6-1.7-9.4-5.8c1.3-1.1,2.6-2.2,3.8-3.4c0.3,6.6,8.2,2,9.7,6.7
			C397.4,534.5,396.1,535.3,394.7,536.1z"/>
		<path id="XMLID_411_" class="st99" d="M282.4,460.6c0.7,5.2,4.8,4.2,8.2,4.3c3.5,0.1,7.1,0.1,10.6,0.2c-5.3,3-11,1.7-16.6,1.6
			C279.5,466.6,280.9,463.4,282.4,460.6z"/>
		<path id="XMLID_410_" class="st0" d="M358,205.8c2,0.1,4.1-0.3,5.4,1.6c-7.3,0-14.6,0-21.9,0c2-2.5,4.8-1.4,7.3-1.7
			C351.9,204.4,355,204.4,358,205.8z"/>
		<path id="XMLID_409_" class="st100" d="M229.4,359.9c2-3.8,6.5-5.8,7-10.6C237.5,355.1,238.9,361,229.4,359.9z"/>
		<path id="XMLID_408_" class="st101" d="M277.3,554.6c6.7-2.3,13.3-2.4,20,0.1C290.6,554.6,284,554.6,277.3,554.6z"/>
		<path id="XMLID_407_" class="st102" d="M363.3,545.3c0,1.2,0.1,2.5,0.1,3.7c-3.5,0.5-6.5,3.5-11.8,1.6
			C356.2,548.5,359.7,546.9,363.3,545.3z"/>
		<path id="XMLID_406_" class="st1" d="M367.3,207.5c4-1.8,8.2-4.2,10.9,1.7C374.3,210.3,371,207.6,367.3,207.5z"/>
		<path id="XMLID_405_" class="st103" d="M299.1,449.7c-4.7,3.8-9.6,3.1-14.5,0.4C289.4,450,294.2,449.9,299.1,449.7z"/>
		<path id="XMLID_404_" class="st96" d="M247.5,459.5c4.7-0.2,8.6,1.1,11.3,5.2C254.6,463.9,250.8,462.1,247.5,459.5z"/>
		<path id="XMLID_403_" class="st104" d="M120.8,334.1c-0.3,2.6,6.7,6.6-1.5,7.7C119,339.1,118.6,336.4,120.8,334.1z"/>
		<path id="XMLID_402_" class="st105" d="M413.3,383.8c2.7-3,0.4-7.6,3.3-10.6C415.1,376.6,420.9,382.3,413.3,383.8z"/>
		<path id="XMLID_401_" class="st1" d="M326.8,207.6c4.2-2.9,8.5-2.7,12.8-0.2c-1.7,0.1-3.5,0.2-5.2,0.3
			C331.8,208.9,329.3,209,326.8,207.6z"/>
		<path id="XMLID_400_" class="st106" d="M494.3,400.9c-0.1-1.9-0.2-3.9-0.3-5.8c0.8-1.7-1.9-4.8,2.1-5.1
			C495.7,393.6,497.2,397.6,494.3,400.9z"/>
		<path id="XMLID_399_" class="st107" d="M262.1,551.4c3.7,1,8.1-2.6,11.3,1.8C269.5,552.8,265.4,554.7,262.1,551.4z"/>
		<path id="XMLID_398_" class="st108" d="M299.1,507.5c-3.7,2.2-7.4,2.8-10.8-0.6C291.9,507.1,295.5,507.3,299.1,507.5z"/>
		<path id="XMLID_397_" class="st109" d="M119.1,367.5c-0.1,1.9,0.4,4-1.5,5.4c0-3.6,0-7.2,0-10.8
			C119.5,363.5,119,365.6,119.1,367.5z"/>
		<path id="XMLID_396_" class="st110" d="M332.2,507c-2.8,3.2-5.9,2.7-9,0.5C326.2,507.3,329.2,507.1,332.2,507z"/>
		<path id="XMLID_395_" class="st0" d="M326.8,207.6c2.5,0,5.1,0.1,7.6,0.1c-2.9,2.2-6.2,1.5-9.4,1.5
			C325.6,208.7,326.2,208.2,326.8,207.6z"/>
		<path id="XMLID_394_" class="st111" d="M238.4,372.5c-0.6,2.3-3.9,3.1-3.5,6c-0.5,0-1.1,0-1.6,0
			C231.3,373.3,234.8,372.9,238.4,372.5z"/>
		<path id="XMLID_393_" class="st112" d="M396.9,371.3c2.3,2.9,2.2,5.9,0.1,8.9C397,377.2,396.9,374.3,396.9,371.3z"/>
		<path id="XMLID_392_" class="st113" d="M451.7,404.3c0,1.2,0,2.4,0,3.7c-0.8-0.1-1.5-0.1-2.3-0.2c0.2-3,0.5-6,0.7-8.9
			C452.1,400.2,451.7,402.3,451.7,404.3z"/>
		<path id="XMLID_391_" class="st114" d="M402.2,381.9c1.8-2.1,4.2-1.5,6.4-1.4c0.3,0,0.5,0.6,0.8,1c-0.7,0.3-1.5,0.6-2.2,1
			C405.6,382.3,403.9,382.1,402.2,381.9z"/>
		<path id="XMLID_390_" class="st1" d="M358,205.8c-3.1,0-6.1,0-9.2,0C351.9,203.1,355,203.1,358,205.8z"/>
		<path id="XMLID_389_" class="st115" d="M495.8,363.8c0,3.1,0,6.1,0,9.2c-11.2,0-22.3-0.5-33.4,0.2c-7.5,0.4-9.8-2.6-8.8-9.3
			C467.7,363.8,481.7,363.8,495.8,363.8z"/>
	</g>
</g>
</svg>
